<?xml version="1.0" encoding="utf-8" standalone="no"?>
<!DOCTYPE svg PUBLIC "-//W3C//DTD SVG 1.1//EN"
  "http://www.w3.org/Graphics/SVG/1.1/DTD/svg11.dtd">
<svg height="1440pt" version="1.1" viewBox="0 0 3600 1440" width="3600pt" xmlns="http://www.w3.org/2000/svg" xmlns:xlink="http://www.w3.org/1999/xlink">
 <metadata>
  <rdf:RDF xmlns:cc="http://creativecommons.org/ns#" xmlns:dc="http://purl.org/dc/elements/1.1/" xmlns:rdf="http://www.w3.org/1999/02/22-rdf-syntax-ns#">
   <cc:Work>
    <dc:type rdf:resource="http://purl.org/dc/dcmitype/StillImage"/>
    <dc:date>2021-07-19T20:25:13.032041</dc:date>
    <dc:format>image/svg+xml</dc:format>
    <dc:creator>
     <cc:Agent>
      <dc:title>Matplotlib v3.4.2, https://matplotlib.org/</dc:title>
     </cc:Agent>
    </dc:creator>
   </cc:Work>
  </rdf:RDF>
 </metadata>
 <defs>
  <style type="text/css">*{stroke-linecap:butt;stroke-linejoin:round;}</style>
 </defs>
 <g id="figure_1">
  <g id="patch_1">
   <path d="M 0 1440 
L 3600 1440 
L 3600 0 
L 0 0 
z
" style="fill:none;"/>
  </g>
  <g id="axes_1">
   <g id="patch_2">
    <path d="M 450 1260 
L 3240 1260 
L 3240 172.8 
L 450 172.8 
z
" style="fill:#ffffff;"/>
   </g>
   <g id="matplotlib.axis_1">
    <g id="xtick_1">
     <g id="line2d_1">
      <defs>
       <path d="M 0 0 
L 0 3.5 
" id="mf219f1942e" style="stroke:#000000;stroke-width:0.8;"/>
      </defs>
      <g>
       <use style="stroke:#000000;stroke-width:0.8;" x="571.534091" xlink:href="#mf219f1942e" y="1260"/>
      </g>
     </g>
     <g id="text_1">
      <!-- 2020-03 -->
      <g transform="translate(574.293466 1308.782813)rotate(-90)scale(0.1 -0.1)">
       <defs>
        <path d="M 1228 531 
L 3431 531 
L 3431 0 
L 469 0 
L 469 531 
Q 828 903 1448 1529 
Q 2069 2156 2228 2338 
Q 2531 2678 2651 2914 
Q 2772 3150 2772 3378 
Q 2772 3750 2511 3984 
Q 2250 4219 1831 4219 
Q 1534 4219 1204 4116 
Q 875 4013 500 3803 
L 500 4441 
Q 881 4594 1212 4672 
Q 1544 4750 1819 4750 
Q 2544 4750 2975 4387 
Q 3406 4025 3406 3419 
Q 3406 3131 3298 2873 
Q 3191 2616 2906 2266 
Q 2828 2175 2409 1742 
Q 1991 1309 1228 531 
z
" id="DejaVuSans-32" transform="scale(0.015625)"/>
        <path d="M 2034 4250 
Q 1547 4250 1301 3770 
Q 1056 3291 1056 2328 
Q 1056 1369 1301 889 
Q 1547 409 2034 409 
Q 2525 409 2770 889 
Q 3016 1369 3016 2328 
Q 3016 3291 2770 3770 
Q 2525 4250 2034 4250 
z
M 2034 4750 
Q 2819 4750 3233 4129 
Q 3647 3509 3647 2328 
Q 3647 1150 3233 529 
Q 2819 -91 2034 -91 
Q 1250 -91 836 529 
Q 422 1150 422 2328 
Q 422 3509 836 4129 
Q 1250 4750 2034 4750 
z
" id="DejaVuSans-30" transform="scale(0.015625)"/>
        <path d="M 313 2009 
L 1997 2009 
L 1997 1497 
L 313 1497 
L 313 2009 
z
" id="DejaVuSans-2d" transform="scale(0.015625)"/>
        <path d="M 2597 2516 
Q 3050 2419 3304 2112 
Q 3559 1806 3559 1356 
Q 3559 666 3084 287 
Q 2609 -91 1734 -91 
Q 1441 -91 1130 -33 
Q 819 25 488 141 
L 488 750 
Q 750 597 1062 519 
Q 1375 441 1716 441 
Q 2309 441 2620 675 
Q 2931 909 2931 1356 
Q 2931 1769 2642 2001 
Q 2353 2234 1838 2234 
L 1294 2234 
L 1294 2753 
L 1863 2753 
Q 2328 2753 2575 2939 
Q 2822 3125 2822 3475 
Q 2822 3834 2567 4026 
Q 2313 4219 1838 4219 
Q 1578 4219 1281 4162 
Q 984 4106 628 3988 
L 628 4550 
Q 988 4650 1302 4700 
Q 1616 4750 1894 4750 
Q 2613 4750 3031 4423 
Q 3450 4097 3450 3541 
Q 3450 3153 3228 2886 
Q 3006 2619 2597 2516 
z
" id="DejaVuSans-33" transform="scale(0.015625)"/>
       </defs>
       <use xlink:href="#DejaVuSans-32"/>
       <use x="63.623047" xlink:href="#DejaVuSans-30"/>
       <use x="127.246094" xlink:href="#DejaVuSans-32"/>
       <use x="190.869141" xlink:href="#DejaVuSans-30"/>
       <use x="254.492188" xlink:href="#DejaVuSans-2d"/>
       <use x="290.576172" xlink:href="#DejaVuSans-30"/>
       <use x="354.199219" xlink:href="#DejaVuSans-33"/>
      </g>
     </g>
    </g>
    <g id="xtick_2">
     <g id="line2d_2">
      <g>
       <use style="stroke:#000000;stroke-width:0.8;" x="893.863636" xlink:href="#mf219f1942e" y="1260"/>
      </g>
     </g>
     <g id="text_2">
      <!-- 2020-05 -->
      <g transform="translate(896.623011 1308.782813)rotate(-90)scale(0.1 -0.1)">
       <defs>
        <path d="M 691 4666 
L 3169 4666 
L 3169 4134 
L 1269 4134 
L 1269 2991 
Q 1406 3038 1543 3061 
Q 1681 3084 1819 3084 
Q 2600 3084 3056 2656 
Q 3513 2228 3513 1497 
Q 3513 744 3044 326 
Q 2575 -91 1722 -91 
Q 1428 -91 1123 -41 
Q 819 9 494 109 
L 494 744 
Q 775 591 1075 516 
Q 1375 441 1709 441 
Q 2250 441 2565 725 
Q 2881 1009 2881 1497 
Q 2881 1984 2565 2268 
Q 2250 2553 1709 2553 
Q 1456 2553 1204 2497 
Q 953 2441 691 2322 
L 691 4666 
z
" id="DejaVuSans-35" transform="scale(0.015625)"/>
       </defs>
       <use xlink:href="#DejaVuSans-32"/>
       <use x="63.623047" xlink:href="#DejaVuSans-30"/>
       <use x="127.246094" xlink:href="#DejaVuSans-32"/>
       <use x="190.869141" xlink:href="#DejaVuSans-30"/>
       <use x="254.492188" xlink:href="#DejaVuSans-2d"/>
       <use x="290.576172" xlink:href="#DejaVuSans-30"/>
       <use x="354.199219" xlink:href="#DejaVuSans-35"/>
      </g>
     </g>
    </g>
    <g id="xtick_3">
     <g id="line2d_3">
      <g>
       <use style="stroke:#000000;stroke-width:0.8;" x="1216.193182" xlink:href="#mf219f1942e" y="1260"/>
      </g>
     </g>
     <g id="text_3">
      <!-- 2020-07 -->
      <g transform="translate(1218.952557 1308.782813)rotate(-90)scale(0.1 -0.1)">
       <defs>
        <path d="M 525 4666 
L 3525 4666 
L 3525 4397 
L 1831 0 
L 1172 0 
L 2766 4134 
L 525 4134 
L 525 4666 
z
" id="DejaVuSans-37" transform="scale(0.015625)"/>
       </defs>
       <use xlink:href="#DejaVuSans-32"/>
       <use x="63.623047" xlink:href="#DejaVuSans-30"/>
       <use x="127.246094" xlink:href="#DejaVuSans-32"/>
       <use x="190.869141" xlink:href="#DejaVuSans-30"/>
       <use x="254.492188" xlink:href="#DejaVuSans-2d"/>
       <use x="290.576172" xlink:href="#DejaVuSans-30"/>
       <use x="354.199219" xlink:href="#DejaVuSans-37"/>
      </g>
     </g>
    </g>
    <g id="xtick_4">
     <g id="line2d_4">
      <g>
       <use style="stroke:#000000;stroke-width:0.8;" x="1543.806818" xlink:href="#mf219f1942e" y="1260"/>
      </g>
     </g>
     <g id="text_4">
      <!-- 2020-09 -->
      <g transform="translate(1546.566193 1308.782813)rotate(-90)scale(0.1 -0.1)">
       <defs>
        <path d="M 703 97 
L 703 672 
Q 941 559 1184 500 
Q 1428 441 1663 441 
Q 2288 441 2617 861 
Q 2947 1281 2994 2138 
Q 2813 1869 2534 1725 
Q 2256 1581 1919 1581 
Q 1219 1581 811 2004 
Q 403 2428 403 3163 
Q 403 3881 828 4315 
Q 1253 4750 1959 4750 
Q 2769 4750 3195 4129 
Q 3622 3509 3622 2328 
Q 3622 1225 3098 567 
Q 2575 -91 1691 -91 
Q 1453 -91 1209 -44 
Q 966 3 703 97 
z
M 1959 2075 
Q 2384 2075 2632 2365 
Q 2881 2656 2881 3163 
Q 2881 3666 2632 3958 
Q 2384 4250 1959 4250 
Q 1534 4250 1286 3958 
Q 1038 3666 1038 3163 
Q 1038 2656 1286 2365 
Q 1534 2075 1959 2075 
z
" id="DejaVuSans-39" transform="scale(0.015625)"/>
       </defs>
       <use xlink:href="#DejaVuSans-32"/>
       <use x="63.623047" xlink:href="#DejaVuSans-30"/>
       <use x="127.246094" xlink:href="#DejaVuSans-32"/>
       <use x="190.869141" xlink:href="#DejaVuSans-30"/>
       <use x="254.492188" xlink:href="#DejaVuSans-2d"/>
       <use x="290.576172" xlink:href="#DejaVuSans-30"/>
       <use x="354.199219" xlink:href="#DejaVuSans-39"/>
      </g>
     </g>
    </g>
    <g id="xtick_5">
     <g id="line2d_5">
      <g>
       <use style="stroke:#000000;stroke-width:0.8;" x="1866.136364" xlink:href="#mf219f1942e" y="1260"/>
      </g>
     </g>
     <g id="text_5">
      <!-- 2020-11 -->
      <g transform="translate(1868.895739 1308.782813)rotate(-90)scale(0.1 -0.1)">
       <defs>
        <path d="M 794 531 
L 1825 531 
L 1825 4091 
L 703 3866 
L 703 4441 
L 1819 4666 
L 2450 4666 
L 2450 531 
L 3481 531 
L 3481 0 
L 794 0 
L 794 531 
z
" id="DejaVuSans-31" transform="scale(0.015625)"/>
       </defs>
       <use xlink:href="#DejaVuSans-32"/>
       <use x="63.623047" xlink:href="#DejaVuSans-30"/>
       <use x="127.246094" xlink:href="#DejaVuSans-32"/>
       <use x="190.869141" xlink:href="#DejaVuSans-30"/>
       <use x="254.492188" xlink:href="#DejaVuSans-2d"/>
       <use x="290.576172" xlink:href="#DejaVuSans-31"/>
       <use x="354.199219" xlink:href="#DejaVuSans-31"/>
      </g>
     </g>
    </g>
    <g id="xtick_6">
     <g id="line2d_6">
      <g>
       <use style="stroke:#000000;stroke-width:0.8;" x="2188.465909" xlink:href="#mf219f1942e" y="1260"/>
      </g>
     </g>
     <g id="text_6">
      <!-- 2021-01 -->
      <g transform="translate(2191.225284 1308.782813)rotate(-90)scale(0.1 -0.1)">
       <use xlink:href="#DejaVuSans-32"/>
       <use x="63.623047" xlink:href="#DejaVuSans-30"/>
       <use x="127.246094" xlink:href="#DejaVuSans-32"/>
       <use x="190.869141" xlink:href="#DejaVuSans-31"/>
       <use x="254.492188" xlink:href="#DejaVuSans-2d"/>
       <use x="290.576172" xlink:href="#DejaVuSans-30"/>
       <use x="354.199219" xlink:href="#DejaVuSans-31"/>
      </g>
     </g>
    </g>
    <g id="xtick_7">
     <g id="line2d_7">
      <g>
       <use style="stroke:#000000;stroke-width:0.8;" x="2500.227273" xlink:href="#mf219f1942e" y="1260"/>
      </g>
     </g>
     <g id="text_7">
      <!-- 2021-03 -->
      <g transform="translate(2502.986648 1308.782813)rotate(-90)scale(0.1 -0.1)">
       <use xlink:href="#DejaVuSans-32"/>
       <use x="63.623047" xlink:href="#DejaVuSans-30"/>
       <use x="127.246094" xlink:href="#DejaVuSans-32"/>
       <use x="190.869141" xlink:href="#DejaVuSans-31"/>
       <use x="254.492188" xlink:href="#DejaVuSans-2d"/>
       <use x="290.576172" xlink:href="#DejaVuSans-30"/>
       <use x="354.199219" xlink:href="#DejaVuSans-33"/>
      </g>
     </g>
    </g>
    <g id="xtick_8">
     <g id="line2d_8">
      <g>
       <use style="stroke:#000000;stroke-width:0.8;" x="2822.556818" xlink:href="#mf219f1942e" y="1260"/>
      </g>
     </g>
     <g id="text_8">
      <!-- 2021-05 -->
      <g transform="translate(2825.316193 1308.782813)rotate(-90)scale(0.1 -0.1)">
       <use xlink:href="#DejaVuSans-32"/>
       <use x="63.623047" xlink:href="#DejaVuSans-30"/>
       <use x="127.246094" xlink:href="#DejaVuSans-32"/>
       <use x="190.869141" xlink:href="#DejaVuSans-31"/>
       <use x="254.492188" xlink:href="#DejaVuSans-2d"/>
       <use x="290.576172" xlink:href="#DejaVuSans-30"/>
       <use x="354.199219" xlink:href="#DejaVuSans-35"/>
      </g>
     </g>
    </g>
    <g id="xtick_9">
     <g id="line2d_9">
      <g>
       <use style="stroke:#000000;stroke-width:0.8;" x="3144.886364" xlink:href="#mf219f1942e" y="1260"/>
      </g>
     </g>
     <g id="text_9">
      <!-- 2021-07 -->
      <g transform="translate(3147.645739 1308.782813)rotate(-90)scale(0.1 -0.1)">
       <use xlink:href="#DejaVuSans-32"/>
       <use x="63.623047" xlink:href="#DejaVuSans-30"/>
       <use x="127.246094" xlink:href="#DejaVuSans-32"/>
       <use x="190.869141" xlink:href="#DejaVuSans-31"/>
       <use x="254.492188" xlink:href="#DejaVuSans-2d"/>
       <use x="290.576172" xlink:href="#DejaVuSans-30"/>
       <use x="354.199219" xlink:href="#DejaVuSans-37"/>
      </g>
     </g>
    </g>
   </g>
   <g id="matplotlib.axis_2">
    <g id="ytick_1">
     <g id="line2d_10">
      <defs>
       <path d="M 0 0 
L -3.5 0 
" id="m99f301cc5f" style="stroke:#000000;stroke-width:0.8;"/>
      </defs>
      <g>
       <use style="stroke:#000000;stroke-width:0.8;" x="450" xlink:href="#m99f301cc5f" y="1219.234471"/>
      </g>
     </g>
     <g id="text_10">
      <!-- 0 -->
      <g style="fill:#ffa500;" transform="translate(436.6375 1223.033689)scale(0.1 -0.1)">
       <use xlink:href="#DejaVuSans-30"/>
      </g>
     </g>
    </g>
    <g id="ytick_2">
     <g id="line2d_11">
      <g>
       <use style="stroke:#000000;stroke-width:0.8;" x="450" xlink:href="#m99f301cc5f" y="1026.953307"/>
      </g>
     </g>
     <g id="text_11">
      <!-- 5000 -->
      <g style="fill:#ffa500;" transform="translate(417.55 1030.752526)scale(0.1 -0.1)">
       <use xlink:href="#DejaVuSans-35"/>
       <use x="63.623047" xlink:href="#DejaVuSans-30"/>
       <use x="127.246094" xlink:href="#DejaVuSans-30"/>
       <use x="190.869141" xlink:href="#DejaVuSans-30"/>
      </g>
     </g>
    </g>
    <g id="ytick_3">
     <g id="line2d_12">
      <g>
       <use style="stroke:#000000;stroke-width:0.8;" x="450" xlink:href="#m99f301cc5f" y="834.672144"/>
      </g>
     </g>
     <g id="text_12">
      <!-- 10000 -->
      <g style="fill:#ffa500;" transform="translate(411.1875 838.471362)scale(0.1 -0.1)">
       <use xlink:href="#DejaVuSans-31"/>
       <use x="63.623047" xlink:href="#DejaVuSans-30"/>
       <use x="127.246094" xlink:href="#DejaVuSans-30"/>
       <use x="190.869141" xlink:href="#DejaVuSans-30"/>
       <use x="254.492188" xlink:href="#DejaVuSans-30"/>
      </g>
     </g>
    </g>
    <g id="ytick_4">
     <g id="line2d_13">
      <g>
       <use style="stroke:#000000;stroke-width:0.8;" x="450" xlink:href="#m99f301cc5f" y="642.39098"/>
      </g>
     </g>
     <g id="text_13">
      <!-- 15000 -->
      <g style="fill:#ffa500;" transform="translate(411.1875 646.190199)scale(0.1 -0.1)">
       <use xlink:href="#DejaVuSans-31"/>
       <use x="63.623047" xlink:href="#DejaVuSans-35"/>
       <use x="127.246094" xlink:href="#DejaVuSans-30"/>
       <use x="190.869141" xlink:href="#DejaVuSans-30"/>
       <use x="254.492188" xlink:href="#DejaVuSans-30"/>
      </g>
     </g>
    </g>
    <g id="ytick_5">
     <g id="line2d_14">
      <g>
       <use style="stroke:#000000;stroke-width:0.8;" x="450" xlink:href="#m99f301cc5f" y="450.109817"/>
      </g>
     </g>
     <g id="text_14">
      <!-- 20000 -->
      <g style="fill:#ffa500;" transform="translate(411.1875 453.909035)scale(0.1 -0.1)">
       <use xlink:href="#DejaVuSans-32"/>
       <use x="63.623047" xlink:href="#DejaVuSans-30"/>
       <use x="127.246094" xlink:href="#DejaVuSans-30"/>
       <use x="190.869141" xlink:href="#DejaVuSans-30"/>
       <use x="254.492188" xlink:href="#DejaVuSans-30"/>
      </g>
     </g>
    </g>
    <g id="ytick_6">
     <g id="line2d_15">
      <g>
       <use style="stroke:#000000;stroke-width:0.8;" x="450" xlink:href="#m99f301cc5f" y="257.828653"/>
      </g>
     </g>
     <g id="text_15">
      <!-- 25000 -->
      <g style="fill:#ffa500;" transform="translate(411.1875 261.627872)scale(0.1 -0.1)">
       <use xlink:href="#DejaVuSans-32"/>
       <use x="63.623047" xlink:href="#DejaVuSans-35"/>
       <use x="127.246094" xlink:href="#DejaVuSans-30"/>
       <use x="190.869141" xlink:href="#DejaVuSans-30"/>
       <use x="254.492188" xlink:href="#DejaVuSans-30"/>
      </g>
     </g>
    </g>
    <g id="text_16">
     <!-- Schätzer_Neuerkrankungen_ma4 -->
     <g style="fill:#ffa500;" transform="translate(403.415 848.8575)rotate(-90)scale(0.16 -0.16)">
      <defs>
       <path d="M 3425 4513 
L 3425 3897 
Q 3066 4069 2747 4153 
Q 2428 4238 2131 4238 
Q 1616 4238 1336 4038 
Q 1056 3838 1056 3469 
Q 1056 3159 1242 3001 
Q 1428 2844 1947 2747 
L 2328 2669 
Q 3034 2534 3370 2195 
Q 3706 1856 3706 1288 
Q 3706 609 3251 259 
Q 2797 -91 1919 -91 
Q 1588 -91 1214 -16 
Q 841 59 441 206 
L 441 856 
Q 825 641 1194 531 
Q 1563 422 1919 422 
Q 2459 422 2753 634 
Q 3047 847 3047 1241 
Q 3047 1584 2836 1778 
Q 2625 1972 2144 2069 
L 1759 2144 
Q 1053 2284 737 2584 
Q 422 2884 422 3419 
Q 422 4038 858 4394 
Q 1294 4750 2059 4750 
Q 2388 4750 2728 4690 
Q 3069 4631 3425 4513 
z
" id="DejaVuSans-53" transform="scale(0.015625)"/>
       <path d="M 3122 3366 
L 3122 2828 
Q 2878 2963 2633 3030 
Q 2388 3097 2138 3097 
Q 1578 3097 1268 2742 
Q 959 2388 959 1747 
Q 959 1106 1268 751 
Q 1578 397 2138 397 
Q 2388 397 2633 464 
Q 2878 531 3122 666 
L 3122 134 
Q 2881 22 2623 -34 
Q 2366 -91 2075 -91 
Q 1284 -91 818 406 
Q 353 903 353 1747 
Q 353 2603 823 3093 
Q 1294 3584 2113 3584 
Q 2378 3584 2631 3529 
Q 2884 3475 3122 3366 
z
" id="DejaVuSans-63" transform="scale(0.015625)"/>
       <path d="M 3513 2113 
L 3513 0 
L 2938 0 
L 2938 2094 
Q 2938 2591 2744 2837 
Q 2550 3084 2163 3084 
Q 1697 3084 1428 2787 
Q 1159 2491 1159 1978 
L 1159 0 
L 581 0 
L 581 4863 
L 1159 4863 
L 1159 2956 
Q 1366 3272 1645 3428 
Q 1925 3584 2291 3584 
Q 2894 3584 3203 3211 
Q 3513 2838 3513 2113 
z
" id="DejaVuSans-68" transform="scale(0.015625)"/>
       <path d="M 2194 1759 
Q 1497 1759 1228 1600 
Q 959 1441 959 1056 
Q 959 750 1161 570 
Q 1363 391 1709 391 
Q 2188 391 2477 730 
Q 2766 1069 2766 1631 
L 2766 1759 
L 2194 1759 
z
M 3341 1997 
L 3341 0 
L 2766 0 
L 2766 531 
Q 2569 213 2275 61 
Q 1981 -91 1556 -91 
Q 1019 -91 701 211 
Q 384 513 384 1019 
Q 384 1609 779 1909 
Q 1175 2209 1959 2209 
L 2766 2209 
L 2766 2266 
Q 2766 2663 2505 2880 
Q 2244 3097 1772 3097 
Q 1472 3097 1187 3025 
Q 903 2953 641 2809 
L 641 3341 
Q 956 3463 1253 3523 
Q 1550 3584 1831 3584 
Q 2591 3584 2966 3190 
Q 3341 2797 3341 1997 
z
M 2150 4850 
L 2784 4850 
L 2784 4219 
L 2150 4219 
L 2150 4850 
z
M 928 4850 
L 1562 4850 
L 1562 4219 
L 928 4219 
L 928 4850 
z
" id="DejaVuSans-e4" transform="scale(0.015625)"/>
       <path d="M 1172 4494 
L 1172 3500 
L 2356 3500 
L 2356 3053 
L 1172 3053 
L 1172 1153 
Q 1172 725 1289 603 
Q 1406 481 1766 481 
L 2356 481 
L 2356 0 
L 1766 0 
Q 1100 0 847 248 
Q 594 497 594 1153 
L 594 3053 
L 172 3053 
L 172 3500 
L 594 3500 
L 594 4494 
L 1172 4494 
z
" id="DejaVuSans-74" transform="scale(0.015625)"/>
       <path d="M 353 3500 
L 3084 3500 
L 3084 2975 
L 922 459 
L 3084 459 
L 3084 0 
L 275 0 
L 275 525 
L 2438 3041 
L 353 3041 
L 353 3500 
z
" id="DejaVuSans-7a" transform="scale(0.015625)"/>
       <path d="M 3597 1894 
L 3597 1613 
L 953 1613 
Q 991 1019 1311 708 
Q 1631 397 2203 397 
Q 2534 397 2845 478 
Q 3156 559 3463 722 
L 3463 178 
Q 3153 47 2828 -22 
Q 2503 -91 2169 -91 
Q 1331 -91 842 396 
Q 353 884 353 1716 
Q 353 2575 817 3079 
Q 1281 3584 2069 3584 
Q 2775 3584 3186 3129 
Q 3597 2675 3597 1894 
z
M 3022 2063 
Q 3016 2534 2758 2815 
Q 2500 3097 2075 3097 
Q 1594 3097 1305 2825 
Q 1016 2553 972 2059 
L 3022 2063 
z
" id="DejaVuSans-65" transform="scale(0.015625)"/>
       <path d="M 2631 2963 
Q 2534 3019 2420 3045 
Q 2306 3072 2169 3072 
Q 1681 3072 1420 2755 
Q 1159 2438 1159 1844 
L 1159 0 
L 581 0 
L 581 3500 
L 1159 3500 
L 1159 2956 
Q 1341 3275 1631 3429 
Q 1922 3584 2338 3584 
Q 2397 3584 2469 3576 
Q 2541 3569 2628 3553 
L 2631 2963 
z
" id="DejaVuSans-72" transform="scale(0.015625)"/>
       <path d="M 3263 -1063 
L 3263 -1509 
L -63 -1509 
L -63 -1063 
L 3263 -1063 
z
" id="DejaVuSans-5f" transform="scale(0.015625)"/>
       <path d="M 628 4666 
L 1478 4666 
L 3547 763 
L 3547 4666 
L 4159 4666 
L 4159 0 
L 3309 0 
L 1241 3903 
L 1241 0 
L 628 0 
L 628 4666 
z
" id="DejaVuSans-4e" transform="scale(0.015625)"/>
       <path d="M 544 1381 
L 544 3500 
L 1119 3500 
L 1119 1403 
Q 1119 906 1312 657 
Q 1506 409 1894 409 
Q 2359 409 2629 706 
Q 2900 1003 2900 1516 
L 2900 3500 
L 3475 3500 
L 3475 0 
L 2900 0 
L 2900 538 
Q 2691 219 2414 64 
Q 2138 -91 1772 -91 
Q 1169 -91 856 284 
Q 544 659 544 1381 
z
M 1991 3584 
L 1991 3584 
z
" id="DejaVuSans-75" transform="scale(0.015625)"/>
       <path d="M 581 4863 
L 1159 4863 
L 1159 1991 
L 2875 3500 
L 3609 3500 
L 1753 1863 
L 3688 0 
L 2938 0 
L 1159 1709 
L 1159 0 
L 581 0 
L 581 4863 
z
" id="DejaVuSans-6b" transform="scale(0.015625)"/>
       <path d="M 2194 1759 
Q 1497 1759 1228 1600 
Q 959 1441 959 1056 
Q 959 750 1161 570 
Q 1363 391 1709 391 
Q 2188 391 2477 730 
Q 2766 1069 2766 1631 
L 2766 1759 
L 2194 1759 
z
M 3341 1997 
L 3341 0 
L 2766 0 
L 2766 531 
Q 2569 213 2275 61 
Q 1981 -91 1556 -91 
Q 1019 -91 701 211 
Q 384 513 384 1019 
Q 384 1609 779 1909 
Q 1175 2209 1959 2209 
L 2766 2209 
L 2766 2266 
Q 2766 2663 2505 2880 
Q 2244 3097 1772 3097 
Q 1472 3097 1187 3025 
Q 903 2953 641 2809 
L 641 3341 
Q 956 3463 1253 3523 
Q 1550 3584 1831 3584 
Q 2591 3584 2966 3190 
Q 3341 2797 3341 1997 
z
" id="DejaVuSans-61" transform="scale(0.015625)"/>
       <path d="M 3513 2113 
L 3513 0 
L 2938 0 
L 2938 2094 
Q 2938 2591 2744 2837 
Q 2550 3084 2163 3084 
Q 1697 3084 1428 2787 
Q 1159 2491 1159 1978 
L 1159 0 
L 581 0 
L 581 3500 
L 1159 3500 
L 1159 2956 
Q 1366 3272 1645 3428 
Q 1925 3584 2291 3584 
Q 2894 3584 3203 3211 
Q 3513 2838 3513 2113 
z
" id="DejaVuSans-6e" transform="scale(0.015625)"/>
       <path d="M 2906 1791 
Q 2906 2416 2648 2759 
Q 2391 3103 1925 3103 
Q 1463 3103 1205 2759 
Q 947 2416 947 1791 
Q 947 1169 1205 825 
Q 1463 481 1925 481 
Q 2391 481 2648 825 
Q 2906 1169 2906 1791 
z
M 3481 434 
Q 3481 -459 3084 -895 
Q 2688 -1331 1869 -1331 
Q 1566 -1331 1297 -1286 
Q 1028 -1241 775 -1147 
L 775 -588 
Q 1028 -725 1275 -790 
Q 1522 -856 1778 -856 
Q 2344 -856 2625 -561 
Q 2906 -266 2906 331 
L 2906 616 
Q 2728 306 2450 153 
Q 2172 0 1784 0 
Q 1141 0 747 490 
Q 353 981 353 1791 
Q 353 2603 747 3093 
Q 1141 3584 1784 3584 
Q 2172 3584 2450 3431 
Q 2728 3278 2906 2969 
L 2906 3500 
L 3481 3500 
L 3481 434 
z
" id="DejaVuSans-67" transform="scale(0.015625)"/>
       <path d="M 3328 2828 
Q 3544 3216 3844 3400 
Q 4144 3584 4550 3584 
Q 5097 3584 5394 3201 
Q 5691 2819 5691 2113 
L 5691 0 
L 5113 0 
L 5113 2094 
Q 5113 2597 4934 2840 
Q 4756 3084 4391 3084 
Q 3944 3084 3684 2787 
Q 3425 2491 3425 1978 
L 3425 0 
L 2847 0 
L 2847 2094 
Q 2847 2600 2669 2842 
Q 2491 3084 2119 3084 
Q 1678 3084 1418 2786 
Q 1159 2488 1159 1978 
L 1159 0 
L 581 0 
L 581 3500 
L 1159 3500 
L 1159 2956 
Q 1356 3278 1631 3431 
Q 1906 3584 2284 3584 
Q 2666 3584 2933 3390 
Q 3200 3197 3328 2828 
z
" id="DejaVuSans-6d" transform="scale(0.015625)"/>
       <path d="M 2419 4116 
L 825 1625 
L 2419 1625 
L 2419 4116 
z
M 2253 4666 
L 3047 4666 
L 3047 1625 
L 3713 1625 
L 3713 1100 
L 3047 1100 
L 3047 0 
L 2419 0 
L 2419 1100 
L 313 1100 
L 313 1709 
L 2253 4666 
z
" id="DejaVuSans-34" transform="scale(0.015625)"/>
      </defs>
      <use xlink:href="#DejaVuSans-53"/>
      <use x="63.476562" xlink:href="#DejaVuSans-63"/>
      <use x="118.457031" xlink:href="#DejaVuSans-68"/>
      <use x="181.835938" xlink:href="#DejaVuSans-e4"/>
      <use x="243.115234" xlink:href="#DejaVuSans-74"/>
      <use x="282.324219" xlink:href="#DejaVuSans-7a"/>
      <use x="334.814453" xlink:href="#DejaVuSans-65"/>
      <use x="396.337891" xlink:href="#DejaVuSans-72"/>
      <use x="437.451172" xlink:href="#DejaVuSans-5f"/>
      <use x="487.451172" xlink:href="#DejaVuSans-4e"/>
      <use x="562.255859" xlink:href="#DejaVuSans-65"/>
      <use x="623.779297" xlink:href="#DejaVuSans-75"/>
      <use x="687.158203" xlink:href="#DejaVuSans-65"/>
      <use x="748.681641" xlink:href="#DejaVuSans-72"/>
      <use x="789.794922" xlink:href="#DejaVuSans-6b"/>
      <use x="847.705078" xlink:href="#DejaVuSans-72"/>
      <use x="888.818359" xlink:href="#DejaVuSans-61"/>
      <use x="950.097656" xlink:href="#DejaVuSans-6e"/>
      <use x="1013.476562" xlink:href="#DejaVuSans-6b"/>
      <use x="1068.261719" xlink:href="#DejaVuSans-75"/>
      <use x="1131.640625" xlink:href="#DejaVuSans-6e"/>
      <use x="1195.019531" xlink:href="#DejaVuSans-67"/>
      <use x="1258.496094" xlink:href="#DejaVuSans-65"/>
      <use x="1320.019531" xlink:href="#DejaVuSans-6e"/>
      <use x="1383.398438" xlink:href="#DejaVuSans-5f"/>
      <use x="1433.398438" xlink:href="#DejaVuSans-6d"/>
      <use x="1530.810547" xlink:href="#DejaVuSans-61"/>
      <use x="1592.089844" xlink:href="#DejaVuSans-34"/>
     </g>
    </g>
   </g>
   <g id="line2d_16">
    <path clip-path="url(#p42e30e5b6e)" d="M 576.818182 1210.581818 
L 582.102273 1209.197394 
L 592.670455 1204.082715 
L 597.954545 1199.737161 
L 603.238636 1193.353426 
L 608.522727 1184.816142 
L 613.806818 1170.24123 
L 619.090909 1152.7821 
L 629.659091 1109.326558 
L 634.943182 1086.868118 
L 640.227273 1068.985969 
L 645.511364 1055.141726 
L 650.795455 1031.914161 
L 661.363636 1015.262612 
L 666.647727 1014.801138 
L 671.931818 1021.41561 
L 677.215909 1029.029944 
L 682.5 1043.181837 
L 687.784091 1039.028564 
L 693.068182 1051.065365 
L 698.352273 1051.296102 
L 703.636364 1049.565572 
L 708.920455 1059.525736 
L 714.204545 1061.333179 
L 719.488636 1072.44703 
L 724.772727 1068.639863 
L 730.056818 1073.908367 
L 735.340909 1072.44703 
L 740.625 1067.986107 
L 745.909091 1074.369842 
L 751.193182 1079.830627 
L 756.477273 1092.713465 
L 761.761364 1096.366807 
L 767.045455 1102.904367 
L 772.329545 1104.173422 
L 777.613636 1104.173422 
L 788.181818 1123.939926 
L 793.465909 1132.784859 
L 798.75 1140.591475 
L 804.034091 1144.167904 
L 809.318182 1144.898573 
L 814.602273 1146.859841 
L 819.886364 1149.205671 
L 825.170455 1154.166525 
L 830.454545 1160.24261 
L 835.738636 1161.896228 
L 841.022727 1164.703533 
L 846.306818 1166.049501 
L 851.590909 1166.472519 
L 856.875 1170.625792 
L 862.159091 1173.933028 
L 867.443182 1177.663283 
L 872.727273 1179.278445 
L 878.011364 1181.239713 
L 883.295455 1182.585681 
L 888.579545 1182.278031 
L 893.863636 1185.008423 
L 899.147727 1186.931235 
L 904.431818 1188.00801 
L 909.715909 1188.431028 
L 920.284091 1188.431028 
L 925.568182 1188.930959 
L 930.852273 1190.930683 
L 936.136364 1193.199601 
L 941.420455 1195.007044 
L 946.704545 1195.391606 
L 951.988636 1195.929994 
L 957.272727 1195.853081 
L 962.556818 1196.122275 
L 967.840909 1196.006906 
L 973.125 1196.583749 
L 978.409091 1198.00663 
L 983.693182 1197.160593 
L 988.977273 1199.198773 
L 994.261364 1199.198773 
L 999.545455 1199.698704 
L 1004.829545 1201.89071 
L 1010.113636 1202.852115 
L 1015.397727 1204.698015 
L 1020.681818 1203.92889 
L 1025.965909 1203.467415 
L 1031.25 1202.621378 
L 1036.534091 1202.544466 
L 1041.818182 1203.736609 
L 1047.102273 1205.121033 
L 1052.386364 1206.89002 
L 1057.670455 1207.389951 
L 1062.954545 1206.505458 
L 1068.238636 1205.428683 
L 1073.522727 1204.736471 
L 1078.806818 1204.813383 
L 1084.090909 1206.159351 
L 1089.375 1207.774513 
L 1094.659091 1207.120757 
L 1110.511364 1203.275134 
L 1115.795455 1203.62124 
L 1126.363636 1205.159489 
L 1131.647727 1202.506009 
L 1136.931818 1195.391606 
L 1142.215909 1192.545845 
L 1147.5 1190.815315 
L 1152.784091 1191.507527 
L 1158.068182 1197.660524 
L 1163.352273 1200.506285 
L 1168.636364 1201.121585 
L 1173.920455 1202.467553 
L 1179.204545 1202.544466 
L 1184.488636 1202.121447 
L 1189.772727 1202.506009 
L 1195.056818 1203.275134 
L 1200.340909 1204.774927 
L 1210.909091 1204.54419 
L 1216.193182 1204.044259 
L 1221.477273 1203.775065 
L 1226.761364 1204.54419 
L 1232.045455 1205.851702 
L 1237.329545 1206.966932 
L 1247.897727 1206.390089 
L 1253.181818 1205.813245 
L 1258.465909 1204.967208 
L 1263.75 1204.428821 
L 1274.318182 1204.313452 
L 1279.602273 1202.736747 
L 1284.886364 1201.89071 
L 1290.170455 1200.198635 
L 1295.454545 1199.160317 
L 1300.738636 1199.23723 
L 1306.022727 1199.544879 
L 1311.306818 1199.967898 
L 1316.590909 1197.814349 
L 1321.875 1196.237643 
L 1327.159091 1193.814901 
L 1332.443182 1192.276651 
L 1337.727273 1192.315108 
L 1343.011364 1193.084232 
L 1348.295455 1194.314832 
L 1353.579545 1192.891951 
L 1358.863636 1192.199739 
L 1364.147727 1191.007596 
L 1369.431818 1189.507803 
L 1374.715909 1189.969277 
L 1380 1189.43089 
L 1385.284091 1187.969553 
L 1390.568182 1184.931511 
L 1395.852273 1182.854874 
L 1401.136364 1181.278169 
L 1406.420455 1180.162938 
L 1411.704545 1180.432132 
L 1416.988636 1180.355219 
L 1422.272727 1179.816832 
L 1427.556818 1176.009665 
L 1432.840909 1173.548466 
L 1443.409091 1167.472381 
L 1448.693182 1168.241506 
L 1453.977273 1169.279824 
L 1459.261364 1170.741161 
L 1464.545455 1170.164318 
L 1469.829545 1168.856806 
L 1475.113636 1167.972312 
L 1480.397727 1168.20305 
L 1485.681818 1170.702705 
L 1490.965909 1174.048397 
L 1496.25 1175.317453 
L 1501.534091 1172.548604 
L 1506.818182 1170.894986 
L 1512.102273 1170.048949 
L 1517.386364 1169.472105 
L 1522.670455 1172.317867 
L 1527.954545 1175.894296 
L 1533.238636 1177.586371 
L 1538.522727 1176.16349 
L 1543.806818 1172.817798 
L 1549.090909 1169.241368 
L 1554.375 1167.010907 
L 1559.659091 1167.856944 
L 1564.943182 1171.010355 
L 1570.227273 1171.279548 
L 1575.511364 1168.049225 
L 1580.795455 1165.088095 
L 1586.079545 1160.819453 
L 1591.363636 1157.704498 
L 1596.647727 1157.204567 
L 1601.931818 1157.666042 
L 1607.215909 1157.896779 
L 1612.5 1153.08975 
L 1617.784091 1149.974795 
L 1623.068182 1146.629103 
L 1628.352273 1145.244679 
L 1633.636364 1149.244127 
L 1638.920455 1153.743506 
L 1644.204545 1156.204705 
L 1649.488636 1151.705326 
L 1654.772727 1147.359772 
L 1660.056818 1141.783618 
L 1665.340909 1137.553432 
L 1670.625 1137.861082 
L 1675.909091 1140.053087 
L 1681.193182 1141.745162 
L 1691.761364 1130.208292 
L 1697.045455 1121.940202 
L 1702.329545 1111.326282 
L 1707.613636 1104.519528 
L 1712.897727 1098.828006 
L 1718.181818 1092.713465 
L 1723.465909 1075.908091 
L 1728.75 1062.256129 
L 1739.318182 1032.298723 
L 1744.602273 1026.338007 
L 1749.886364 1021.377153 
L 1755.170455 1015.724087 
L 1765.738636 967.692253 
L 1771.022727 937.657935 
L 1776.306818 906.931405 
L 1781.590909 887.126445 
L 1786.875 872.705358 
L 1792.159091 853.28496 
L 1797.443182 803.907157 
L 1802.727273 753.337211 
L 1808.011364 695.306756 
L 1813.295455 651.312826 
L 1818.579545 631.815516 
L 1829.147727 626.739293 
L 1834.431818 586.667899 
L 1839.715909 562.017454 
L 1845 533.136823 
L 1850.284091 522.022972 
L 1855.568182 540.82807 
L 1860.852273 567.785889 
L 1866.136364 581.55322 
L 1871.420455 541.597194 
L 1876.704545 524.522627 
L 1881.988636 501.371975 
L 1887.272727 502.487206 
L 1892.556818 549.09616 
L 1897.840909 587.283199 
L 1903.125 614.971686 
L 1908.409091 591.013453 
L 1913.693182 568.824207 
L 1918.977273 541.212632 
L 1924.261364 517.13903 
L 1929.545455 523.715046 
L 1934.829545 544.058393 
L 1940.113636 557.902637 
L 1945.397727 530.983274 
L 1950.681818 520.561635 
L 1955.965909 498.680039 
L 1961.25 491.181073 
L 1966.534091 526.406982 
L 1971.818182 574.284992 
L 1977.102273 613.587262 
L 1982.386364 601.935023 
L 1987.670455 595.782026 
L 1992.954545 572.246812 
L 1998.238636 557.748812 
L 2003.522727 577.553772 
L 2008.806818 596.128132 
L 2014.090909 611.049151 
L 2019.375 565.863077 
L 2024.659091 524.29189 
L 2029.943182 475.144824 
L 2035.227273 422.036767 
L 2040.511364 414.076327 
L 2045.795455 416.999 
L 2051.079545 415.191557 
L 2056.363636 365.121542 
L 2061.647727 323.588811 
L 2066.931818 278.018175 
L 2072.215909 240.907911 
L 2077.5 256.521141 
L 2088.068182 311.898116 
L 2093.352273 279.556425 
L 2098.636364 259.559184 
L 2103.920455 236.331619 
L 2109.204545 222.218182 
L 2114.488636 269.442436 
L 2119.772727 326.319204 
L 2125.056818 378.658136 
L 2130.340909 385.349521 
L 2135.625 409.769229 
L 2140.909091 429.881838 
L 2146.193182 463.454129 
L 2151.477273 541.481826 
L 2156.761364 582.514626 
L 2162.045455 586.783268 
L 2167.329545 530.444887 
L 2172.613636 495.334346 
L 2177.897727 495.411259 
L 2183.181818 529.214287 
L 2188.465909 599.743018 
L 2193.75 623.393601 
L 2199.034091 611.164519 
L 2204.318182 546.019661 
L 2209.602273 506.102092 
L 2214.886364 497.449439 
L 2220.170455 516.177624 
L 2225.454545 573.362043 
L 2230.738636 629.162036 
L 2236.022727 658.811792 
L 2241.306818 649.197733 
L 2246.590909 651.005176 
L 2251.875 640.083606 
L 2257.159091 644.967548 
L 2267.727273 706.997451 
L 2273.011364 730.955684 
L 2278.295455 712.996623 
L 2283.579545 708.766438 
L 2288.863636 697.152656 
L 2294.147727 701.036735 
L 2299.431818 737.723981 
L 2304.715909 771.950028 
L 2310 803.330314 
L 2315.284091 795.023768 
L 2320.568182 796.908123 
L 2325.852273 796.908123 
L 2331.136364 798.561741 
L 2336.420455 828.403778 
L 2341.704545 857.130584 
L 2346.988636 878.550705 
L 2352.272727 872.897639 
L 2357.556818 872.090058 
L 2362.840909 868.39826 
L 2368.125 871.128652 
L 2373.409091 898.163384 
L 2378.693182 924.198253 
L 2383.977273 945.733744 
L 2389.261364 942.041945 
L 2394.545455 940.503696 
L 2399.829545 933.850768 
L 2405.113636 931.389569 
L 2410.397727 943.157176 
L 2415.681818 955.309346 
L 2420.965909 963.039048 
L 2426.25 945.233813 
L 2431.534091 933.31238 
L 2436.818182 917.468413 
L 2442.102273 906.931405 
L 2447.386364 915.545601 
L 2452.670455 922.852285 
L 2457.954545 931.966412 
L 2463.238636 920.083436 
L 2468.522727 911.930715 
L 2473.806818 905.123962 
L 2479.090909 900.009283 
L 2484.375 909.777166 
L 2489.659091 922.467723 
L 2494.943182 929.620582 
L 2500.227273 911.661521 
L 2505.511364 902.316657 
L 2510.795455 884.857527 
L 2516.079545 872.320795 
L 2521.363636 877.243193 
L 2526.647727 877.358562 
L 2531.931818 877.050912 
L 2537.215909 846.824313 
L 2542.5 822.981449 
L 2547.784091 795.71598 
L 2553.068182 771.950028 
L 2558.352273 769.411917 
L 2568.920455 762.874357 
L 2574.204545 725.07188 
L 2579.488636 697.92178 
L 2584.772727 667.310619 
L 2590.056818 646.659622 
L 2595.340909 652.504969 
L 2600.625 651.658932 
L 2605.909091 649.159277 
L 2611.193182 604.973066 
L 2616.477273 569.516419 
L 2621.761364 541.597194 
L 2627.045455 528.0606 
L 2632.329545 551.903465 
L 2637.613636 584.245156 
L 2642.897727 615.356249 
L 2648.181818 600.665968 
L 2653.465909 594.474514 
L 2658.75 587.898498 
L 2664.034091 569.593332 
L 2669.318182 599.935299 
L 2674.602273 625.2395 
L 2679.886364 637.776232 
L 2685.170455 637.545495 
L 2690.454545 598.39705 
L 2695.738636 550.672865 
L 2701.022727 507.871078 
L 2706.306818 487.220081 
L 2711.590909 492.065567 
L 2716.875 507.025041 
L 2722.159091 475.606299 
L 2727.443182 457.570326 
L 2732.727273 445.610438 
L 2738.011364 435.650273 
L 2743.295455 459.916156 
L 2748.579545 475.49093 
L 2753.863636 479.336554 
L 2759.147727 433.073706 
L 2764.431818 412.038146 
L 2769.715909 397.847797 
L 2775 405.116024 
L 2780.284091 457.147307 
L 2785.568182 505.640617 
L 2790.852273 545.442818 
L 2796.136364 535.713391 
L 2801.420455 540.866526 
L 2806.704545 543.48155 
L 2811.988636 559.940817 
L 2817.272727 608.126477 
L 2822.556818 647.582572 
L 2827.840909 682.731568 
L 2833.125 672.848316 
L 2838.409091 678.232189 
L 2843.693182 681.962444 
L 2848.977273 693.23012 
L 2854.261364 738.570018 
L 2859.545455 779.448993 
L 2864.829545 812.790547 
L 2870.113636 813.867322 
L 2875.397727 824.365873 
L 2880.681818 835.672006 
L 2885.965909 858.553464 
L 2891.25 898.894052 
L 2896.534091 924.390535 
L 2901.818182 942.157314 
L 2907.102273 936.081229 
L 2912.386364 941.080539 
L 2917.670455 952.463584 
L 2922.954545 967.346146 
L 2928.238636 998.072676 
L 2933.522727 1023.684527 
L 2938.806818 1044.643174 
L 2944.090909 1055.987763 
L 2949.375 1059.17963 
L 2954.659091 1061.333179 
L 2959.943182 1062.409954 
L 2965.227273 1068.985969 
L 2970.511364 1082.907126 
L 2975.795455 1095.943789 
L 2981.079545 1101.13538 
L 2986.363636 1107.05764 
L 2991.647727 1109.595751 
L 2996.931818 1113.787481 
L 3002.215909 1123.478451 
L 3007.5 1131.477348 
L 3012.784091 1138.630207 
L 3018.068182 1138.976313 
L 3023.352273 1142.014355 
L 3028.636364 1146.629103 
L 3033.920455 1152.166801 
L 3039.204545 1161.934684 
L 3044.488636 1169.395193 
L 3049.772727 1174.817522 
L 3055.056818 1177.201808 
L 3060.340909 1179.278445 
L 3065.625 1180.470588 
L 3070.909091 1182.162662 
L 3076.193182 1186.123654 
L 3081.477273 1189.73854 
L 3086.761364 1192.930407 
L 3092.045455 1193.353426 
L 3102.613636 1192.69967 
L 3107.897727 1193.507251 
L 3113.181818 1196.852943 
L 3113.181818 1196.852943 
" style="fill:none;stroke:#ffa500;stroke-linecap:square;stroke-width:3;"/>
   </g>
   <g id="patch_3">
    <path d="M 450 1260 
L 450 172.8 
" style="fill:none;stroke:#000000;stroke-linecap:square;stroke-linejoin:miter;stroke-width:0.8;"/>
   </g>
   <g id="patch_4">
    <path d="M 3240 1260 
L 3240 172.8 
" style="fill:none;stroke:#000000;stroke-linecap:square;stroke-linejoin:miter;stroke-width:0.8;"/>
   </g>
   <g id="patch_5">
    <path d="M 450 1260 
L 3240 1260 
" style="fill:none;stroke:#000000;stroke-linecap:square;stroke-linejoin:miter;stroke-width:0.8;"/>
   </g>
   <g id="patch_6">
    <path d="M 450 172.8 
L 3240 172.8 
" style="fill:none;stroke:#000000;stroke-linecap:square;stroke-linejoin:miter;stroke-width:0.8;"/>
   </g>
  </g>
  <g id="axes_2">
   <g id="matplotlib.axis_3">
    <g id="ytick_7">
     <g id="line2d_17">
      <defs>
       <path d="M 0 0 
L 3.5 0 
" id="m1eb2caeeff" style="stroke:#000000;stroke-width:0.8;"/>
      </defs>
      <g>
       <use style="stroke:#000000;stroke-width:0.8;" x="3240" xlink:href="#m1eb2caeeff" y="1151.750649"/>
      </g>
     </g>
     <g id="text_17">
      <!-- 52.5 -->
      <g style="fill:#006400;" transform="translate(3247 1155.549868)scale(0.1 -0.1)">
       <defs>
        <path d="M 684 794 
L 1344 794 
L 1344 0 
L 684 0 
L 684 794 
z
" id="DejaVuSans-2e" transform="scale(0.015625)"/>
       </defs>
       <use xlink:href="#DejaVuSans-35"/>
       <use x="63.623047" xlink:href="#DejaVuSans-32"/>
       <use x="127.246094" xlink:href="#DejaVuSans-2e"/>
       <use x="159.033203" xlink:href="#DejaVuSans-35"/>
      </g>
     </g>
    </g>
    <g id="ytick_8">
     <g id="line2d_18">
      <g>
       <use style="stroke:#000000;stroke-width:0.8;" x="3240" xlink:href="#m1eb2caeeff" y="1004.672727"/>
      </g>
     </g>
     <g id="text_18">
      <!-- 55.0 -->
      <g style="fill:#006400;" transform="translate(3247 1008.471946)scale(0.1 -0.1)">
       <use xlink:href="#DejaVuSans-35"/>
       <use x="63.623047" xlink:href="#DejaVuSans-35"/>
       <use x="127.246094" xlink:href="#DejaVuSans-2e"/>
       <use x="159.033203" xlink:href="#DejaVuSans-30"/>
      </g>
     </g>
    </g>
    <g id="ytick_9">
     <g id="line2d_19">
      <g>
       <use style="stroke:#000000;stroke-width:0.8;" x="3240" xlink:href="#m1eb2caeeff" y="857.594805"/>
      </g>
     </g>
     <g id="text_19">
      <!-- 57.5 -->
      <g style="fill:#006400;" transform="translate(3247 861.394024)scale(0.1 -0.1)">
       <use xlink:href="#DejaVuSans-35"/>
       <use x="63.623047" xlink:href="#DejaVuSans-37"/>
       <use x="127.246094" xlink:href="#DejaVuSans-2e"/>
       <use x="159.033203" xlink:href="#DejaVuSans-35"/>
      </g>
     </g>
    </g>
    <g id="ytick_10">
     <g id="line2d_20">
      <g>
       <use style="stroke:#000000;stroke-width:0.8;" x="3240" xlink:href="#m1eb2caeeff" y="710.516883"/>
      </g>
     </g>
     <g id="text_20">
      <!-- 60.0 -->
      <g style="fill:#006400;" transform="translate(3247 714.316102)scale(0.1 -0.1)">
       <defs>
        <path d="M 2113 2584 
Q 1688 2584 1439 2293 
Q 1191 2003 1191 1497 
Q 1191 994 1439 701 
Q 1688 409 2113 409 
Q 2538 409 2786 701 
Q 3034 994 3034 1497 
Q 3034 2003 2786 2293 
Q 2538 2584 2113 2584 
z
M 3366 4563 
L 3366 3988 
Q 3128 4100 2886 4159 
Q 2644 4219 2406 4219 
Q 1781 4219 1451 3797 
Q 1122 3375 1075 2522 
Q 1259 2794 1537 2939 
Q 1816 3084 2150 3084 
Q 2853 3084 3261 2657 
Q 3669 2231 3669 1497 
Q 3669 778 3244 343 
Q 2819 -91 2113 -91 
Q 1303 -91 875 529 
Q 447 1150 447 2328 
Q 447 3434 972 4092 
Q 1497 4750 2381 4750 
Q 2619 4750 2861 4703 
Q 3103 4656 3366 4563 
z
" id="DejaVuSans-36" transform="scale(0.015625)"/>
       </defs>
       <use xlink:href="#DejaVuSans-36"/>
       <use x="63.623047" xlink:href="#DejaVuSans-30"/>
       <use x="127.246094" xlink:href="#DejaVuSans-2e"/>
       <use x="159.033203" xlink:href="#DejaVuSans-30"/>
      </g>
     </g>
    </g>
    <g id="ytick_11">
     <g id="line2d_21">
      <g>
       <use style="stroke:#000000;stroke-width:0.8;" x="3240" xlink:href="#m1eb2caeeff" y="563.438961"/>
      </g>
     </g>
     <g id="text_21">
      <!-- 62.5 -->
      <g style="fill:#006400;" transform="translate(3247 567.23818)scale(0.1 -0.1)">
       <use xlink:href="#DejaVuSans-36"/>
       <use x="63.623047" xlink:href="#DejaVuSans-32"/>
       <use x="127.246094" xlink:href="#DejaVuSans-2e"/>
       <use x="159.033203" xlink:href="#DejaVuSans-35"/>
      </g>
     </g>
    </g>
    <g id="ytick_12">
     <g id="line2d_22">
      <g>
       <use style="stroke:#000000;stroke-width:0.8;" x="3240" xlink:href="#m1eb2caeeff" y="416.361039"/>
      </g>
     </g>
     <g id="text_22">
      <!-- 65.0 -->
      <g style="fill:#006400;" transform="translate(3247 420.160258)scale(0.1 -0.1)">
       <use xlink:href="#DejaVuSans-36"/>
       <use x="63.623047" xlink:href="#DejaVuSans-35"/>
       <use x="127.246094" xlink:href="#DejaVuSans-2e"/>
       <use x="159.033203" xlink:href="#DejaVuSans-30"/>
      </g>
     </g>
    </g>
    <g id="ytick_13">
     <g id="line2d_23">
      <g>
       <use style="stroke:#000000;stroke-width:0.8;" x="3240" xlink:href="#m1eb2caeeff" y="269.283117"/>
      </g>
     </g>
     <g id="text_23">
      <!-- 67.5 -->
      <g style="fill:#006400;" transform="translate(3247 273.082336)scale(0.1 -0.1)">
       <use xlink:href="#DejaVuSans-36"/>
       <use x="63.623047" xlink:href="#DejaVuSans-37"/>
       <use x="127.246094" xlink:href="#DejaVuSans-2e"/>
       <use x="159.033203" xlink:href="#DejaVuSans-35"/>
      </g>
     </g>
    </g>
    <g id="text_24">
     <!-- FRE -->
     <g style="fill:#006400;" transform="translate(3285.423125 731.615)rotate(-90)scale(0.16 -0.16)">
      <defs>
       <path d="M 628 4666 
L 3309 4666 
L 3309 4134 
L 1259 4134 
L 1259 2759 
L 3109 2759 
L 3109 2228 
L 1259 2228 
L 1259 0 
L 628 0 
L 628 4666 
z
" id="DejaVuSans-46" transform="scale(0.015625)"/>
       <path d="M 2841 2188 
Q 3044 2119 3236 1894 
Q 3428 1669 3622 1275 
L 4263 0 
L 3584 0 
L 2988 1197 
Q 2756 1666 2539 1819 
Q 2322 1972 1947 1972 
L 1259 1972 
L 1259 0 
L 628 0 
L 628 4666 
L 2053 4666 
Q 2853 4666 3247 4331 
Q 3641 3997 3641 3322 
Q 3641 2881 3436 2590 
Q 3231 2300 2841 2188 
z
M 1259 4147 
L 1259 2491 
L 2053 2491 
Q 2509 2491 2742 2702 
Q 2975 2913 2975 3322 
Q 2975 3731 2742 3939 
Q 2509 4147 2053 4147 
L 1259 4147 
z
" id="DejaVuSans-52" transform="scale(0.015625)"/>
       <path d="M 628 4666 
L 3578 4666 
L 3578 4134 
L 1259 4134 
L 1259 2753 
L 3481 2753 
L 3481 2222 
L 1259 2222 
L 1259 531 
L 3634 531 
L 3634 0 
L 628 0 
L 628 4666 
z
" id="DejaVuSans-45" transform="scale(0.015625)"/>
      </defs>
      <use xlink:href="#DejaVuSans-46"/>
      <use x="57.519531" xlink:href="#DejaVuSans-52"/>
      <use x="127.001953" xlink:href="#DejaVuSans-45"/>
     </g>
    </g>
   </g>
   <g id="line2d_24">
    <path clip-path="url(#p42e30e5b6e)" d="M 576.818182 613.445455 
L 582.102273 466.367532 
L 587.386364 795.822078 
L 592.670455 751.698701 
L 597.954545 892.893506 
M 613.806818 887.01039 
L 619.090909 484.016883 
L 624.375 278.107792 
L 629.659091 448.718182 
L 634.943182 442.835065 
M 650.795455 222.218182 
L 656.079545 916.425974 
L 661.363636 1034.088312 
L 666.647727 607.562338 
L 671.931818 607.562338 
M 687.784091 589.912987 
L 693.068182 642.861039 
L 698.352273 766.406494 
L 703.636364 845.828571 
L 708.920455 1098.802597 
M 724.772727 619.328571 
L 730.056818 1004.672727 
M 740.625 1092.919481 
L 745.909091 625.211688 
M 761.761364 866.419481 
L 767.045455 1004.672727 
L 772.329545 1210.581818 
M 1173.920455 678.15974 
L 1179.204545 839.945455 
M 2949.375 834.062338 
" style="fill:none;stroke:#006400;stroke-linecap:square;stroke-width:3;"/>
   </g>
   <g id="patch_7">
    <path d="M 450 1260 
L 450 172.8 
" style="fill:none;stroke:#000000;stroke-linecap:square;stroke-linejoin:miter;stroke-width:0.8;"/>
   </g>
   <g id="patch_8">
    <path d="M 3240 1260 
L 3240 172.8 
" style="fill:none;stroke:#000000;stroke-linecap:square;stroke-linejoin:miter;stroke-width:0.8;"/>
   </g>
   <g id="patch_9">
    <path d="M 450 1260 
L 3240 1260 
" style="fill:none;stroke:#000000;stroke-linecap:square;stroke-linejoin:miter;stroke-width:0.8;"/>
   </g>
   <g id="patch_10">
    <path d="M 450 172.8 
L 3240 172.8 
" style="fill:none;stroke:#000000;stroke-linecap:square;stroke-linejoin:miter;stroke-width:0.8;"/>
   </g>
  </g>
 </g>
 <defs>
  <clipPath id="p42e30e5b6e">
   <rect height="1087.2" width="2790" x="450" y="172.8"/>
  </clipPath>
 </defs>
</svg>
