<?xml version="1.0" encoding="utf-8" standalone="no"?>
<!DOCTYPE svg PUBLIC "-//W3C//DTD SVG 1.1//EN"
  "http://www.w3.org/Graphics/SVG/1.1/DTD/svg11.dtd">
<svg height="288pt" version="1.1" viewBox="0 0 432 288" width="432pt" xmlns="http://www.w3.org/2000/svg" xmlns:xlink="http://www.w3.org/1999/xlink">
 <metadata>
  <rdf:RDF xmlns:cc="http://creativecommons.org/ns#" xmlns:dc="http://purl.org/dc/elements/1.1/" xmlns:rdf="http://www.w3.org/1999/02/22-rdf-syntax-ns#">
   <cc:Work>
    <dc:type rdf:resource="http://purl.org/dc/dcmitype/StillImage"/>
    <dc:date>2021-07-19T13:59:15.355019</dc:date>
    <dc:format>image/svg+xml</dc:format>
    <dc:creator>
     <cc:Agent>
      <dc:title>Matplotlib v3.4.2, https://matplotlib.org/</dc:title>
     </cc:Agent>
    </dc:creator>
   </cc:Work>
  </rdf:RDF>
 </metadata>
 <defs>
  <style type="text/css">*{stroke-linecap:butt;stroke-linejoin:round;}</style>
 </defs>
 <g id="figure_1">
  <g id="patch_1">
   <path d="M 0 288 
L 432 288 
L 432 0 
L 0 0 
z
" style="fill:none;"/>
  </g>
  <g id="axes_1">
   <g id="patch_2">
    <path d="M 54 252 
L 388.8 252 
L 388.8 34.56 
L 54 34.56 
z
" style="fill:#ffffff;"/>
   </g>
   <g id="PathCollection_1">
    <defs>
     <path d="M 0 3 
C 0.795609 3 1.55874 2.683901 2.12132 2.12132 
C 2.683901 1.55874 3 0.795609 3 -0 
C 3 -0.795609 2.683901 -1.55874 2.12132 -2.12132 
C 1.55874 -2.683901 0.795609 -3 0 -3 
C -0.795609 -3 -1.55874 -2.683901 -2.12132 -2.12132 
C -2.683901 -1.55874 -3 -0.795609 -3 0 
C -3 0.795609 -2.683901 1.55874 -2.12132 2.12132 
C -1.55874 2.683901 -0.795609 3 0 3 
z
" id="C0_0_2ddc891db8"/>
    </defs>
    <g clip-path="url(#p1db4a88428)">
     <use style="fill:#1f77b4;stroke:#ffffff;stroke-width:0.48;" x="104.844561" xlink:href="#C0_0_2ddc891db8" y="64.11218"/>
    </g>
    <g clip-path="url(#p1db4a88428)">
     <use style="fill:#ff7f0e;stroke:#ffffff;stroke-width:0.48;" x="185.333789" xlink:href="#C0_0_2ddc891db8" y="180.989429"/>
    </g>
    <g clip-path="url(#p1db4a88428)">
     <use style="fill:#ff7f0e;stroke:#ffffff;stroke-width:0.48;" x="286.934945" xlink:href="#C0_0_2ddc891db8" y="194.663111"/>
    </g>
    <g clip-path="url(#p1db4a88428)">
     <use style="fill:#1f77b4;stroke:#ffffff;stroke-width:0.48;" x="202.047399" xlink:href="#C0_0_2ddc891db8" y="86.392131"/>
    </g>
    <g clip-path="url(#p1db4a88428)">
     <use style="fill:#ff7f0e;stroke:#ffffff;stroke-width:0.48;" x="219.200841" xlink:href="#C0_0_2ddc891db8" y="180.571318"/>
    </g>
    <g clip-path="url(#p1db4a88428)">
     <use style="fill:#1f77b4;stroke:#ffffff;stroke-width:0.48;" x="129.914976" xlink:href="#C0_0_2ddc891db8" y="118.803844"/>
    </g>
    <g clip-path="url(#p1db4a88428)">
     <use style="fill:#1f77b4;stroke:#ffffff;stroke-width:0.48;" x="160.703205" xlink:href="#C0_0_2ddc891db8" y="98.778321"/>
    </g>
    <g clip-path="url(#p1db4a88428)">
     <use style="fill:#1f77b4;stroke:#ffffff;stroke-width:0.48;" x="259.225539" xlink:href="#C0_0_2ddc891db8" y="195.883832"/>
    </g>
    <g clip-path="url(#p1db4a88428)">
     <use style="fill:#1f77b4;stroke:#ffffff;stroke-width:0.48;" x="135.63279" xlink:href="#C0_0_2ddc891db8" y="185.839075"/>
    </g>
    <g clip-path="url(#p1db4a88428)">
     <use style="fill:#1f77b4;stroke:#ffffff;stroke-width:0.48;" x="100.006411" xlink:href="#C0_0_2ddc891db8" y="151.645157"/>
    </g>
    <g clip-path="url(#p1db4a88428)">
     <use style="fill:#1f77b4;stroke:#ffffff;stroke-width:0.48;" x="105.284393" xlink:href="#C0_0_2ddc891db8" y="93.413551"/>
    </g>
    <g clip-path="url(#p1db4a88428)">
     <use style="fill:#ff7f0e;stroke:#ffffff;stroke-width:0.48;" x="268.022176" xlink:href="#C0_0_2ddc891db8" y="226.031553"/>
    </g>
    <g clip-path="url(#p1db4a88428)">
     <use style="fill:#ff7f0e;stroke:#ffffff;stroke-width:0.48;" x="274.619653" xlink:href="#C0_0_2ddc891db8" y="192.45562"/>
    </g>
    <g clip-path="url(#p1db4a88428)">
     <use style="fill:#1f77b4;stroke:#ffffff;stroke-width:0.48;" x="106.603889" xlink:href="#C0_0_2ddc891db8" y="75.883513"/>
    </g>
    <g clip-path="url(#p1db4a88428)">
     <use style="fill:#ff7f0e;stroke:#ffffff;stroke-width:0.48;" x="136.512454" xlink:href="#C0_0_2ddc891db8" y="195.327583"/>
    </g>
    <g clip-path="url(#p1db4a88428)">
     <use style="fill:#1f77b4;stroke:#ffffff;stroke-width:0.48;" x="114.960694" xlink:href="#C0_0_2ddc891db8" y="112.08067"/>
    </g>
    <g clip-path="url(#p1db4a88428)">
     <use style="fill:#1f77b4;stroke:#ffffff;stroke-width:0.48;" x="80.213978" xlink:href="#C0_0_2ddc891db8" y="100.240739"/>
    </g>
    <g clip-path="url(#p1db4a88428)">
     <use style="fill:#1f77b4;stroke:#ffffff;stroke-width:0.48;" x="290.013768" xlink:href="#C0_0_2ddc891db8" y="163.614713"/>
    </g>
    <g clip-path="url(#p1db4a88428)">
     <use style="fill:#1f77b4;stroke:#ffffff;stroke-width:0.48;" x="103.085234" xlink:href="#C0_0_2ddc891db8" y="140.697305"/>
    </g>
    <g clip-path="url(#p1db4a88428)">
     <use style="fill:#1f77b4;stroke:#ffffff;stroke-width:0.48;" x="126.836153" xlink:href="#C0_0_2ddc891db8" y="98.695331"/>
    </g>
    <g clip-path="url(#p1db4a88428)">
     <use style="fill:#1f77b4;stroke:#ffffff;stroke-width:0.48;" x="99.126747" xlink:href="#C0_0_2ddc891db8" y="136.778458"/>
    </g>
    <g clip-path="url(#p1db4a88428)">
     <use style="fill:#1f77b4;stroke:#ffffff;stroke-width:0.48;" x="147.50825" xlink:href="#C0_0_2ddc891db8" y="143.566652"/>
    </g>
    <g clip-path="url(#p1db4a88428)">
     <use style="fill:#1f77b4;stroke:#ffffff;stroke-width:0.48;" x="101.765738" xlink:href="#C0_0_2ddc891db8" y="107.942514"/>
    </g>
    <g clip-path="url(#p1db4a88428)">
     <use style="fill:#1f77b4;stroke:#ffffff;stroke-width:0.48;" x="234.594955" xlink:href="#C0_0_2ddc891db8" y="187.328386"/>
    </g>
    <g clip-path="url(#p1db4a88428)">
     <use style="fill:#1f77b4;stroke:#ffffff;stroke-width:0.48;" x="99.566579" xlink:href="#C0_0_2ddc891db8" y="118.025807"/>
    </g>
    <g clip-path="url(#p1db4a88428)">
     <use style="fill:#1f77b4;stroke:#ffffff;stroke-width:0.48;" x="120.678508" xlink:href="#C0_0_2ddc891db8" y="105.899855"/>
    </g>
    <g clip-path="url(#p1db4a88428)">
     <use style="fill:#1f77b4;stroke:#ffffff;stroke-width:0.48;" x="130.79464" xlink:href="#C0_0_2ddc891db8" y="164.018575"/>
    </g>
    <g clip-path="url(#p1db4a88428)">
     <use style="fill:#1f77b4;stroke:#ffffff;stroke-width:0.48;" x="170.819338" xlink:href="#C0_0_2ddc891db8" y="168.126645"/>
    </g>
    <g clip-path="url(#p1db4a88428)">
     <use style="fill:#1f77b4;stroke:#ffffff;stroke-width:0.48;" x="81.533473" xlink:href="#C0_0_2ddc891db8" y="75.547812"/>
    </g>
    <g clip-path="url(#p1db4a88428)">
     <use style="fill:#1f77b4;stroke:#ffffff;stroke-width:0.48;" x="187.093116" xlink:href="#C0_0_2ddc891db8" y="65.600798"/>
    </g>
    <g clip-path="url(#p1db4a88428)">
     <use style="fill:#1f77b4;stroke:#ffffff;stroke-width:0.48;" x="179.176143" xlink:href="#C0_0_2ddc891db8" y="164.157185"/>
    </g>
    <g clip-path="url(#p1db4a88428)">
     <use style="fill:#1f77b4;stroke:#ffffff;stroke-width:0.48;" x="175.217656" xlink:href="#C0_0_2ddc891db8" y="154.935522"/>
    </g>
    <g clip-path="url(#p1db4a88428)">
     <use style="fill:#1f77b4;stroke:#ffffff;stroke-width:0.48;" x="119.798844" xlink:href="#C0_0_2ddc891db8" y="52.144862"/>
    </g>
    <g clip-path="url(#p1db4a88428)">
     <use style="fill:#1f77b4;stroke:#ffffff;stroke-width:0.48;" x="197.64908" xlink:href="#C0_0_2ddc891db8" y="191.085966"/>
    </g>
    <g clip-path="url(#p1db4a88428)">
     <use style="fill:#ff7f0e;stroke:#ffffff;stroke-width:0.48;" x="96.487756" xlink:href="#C0_0_2ddc891db8" y="209.10305"/>
    </g>
    <g clip-path="url(#p1db4a88428)">
     <use style="fill:#1f77b4;stroke:#ffffff;stroke-width:0.48;" x="97.36742" xlink:href="#C0_0_2ddc891db8" y="80.310203"/>
    </g>
    <g clip-path="url(#p1db4a88428)">
     <use style="fill:#1f77b4;stroke:#ffffff;stroke-width:0.48;" x="279.457803" xlink:href="#C0_0_2ddc891db8" y="232.012835"/>
    </g>
    <g clip-path="url(#p1db4a88428)">
     <use style="fill:#1f77b4;stroke:#ffffff;stroke-width:0.48;" x="115.840357" xlink:href="#C0_0_2ddc891db8" y="111.960006"/>
    </g>
    <g clip-path="url(#p1db4a88428)">
     <use style="fill:#1f77b4;stroke:#ffffff;stroke-width:0.48;" x="69.218182" xlink:href="#C0_0_2ddc891db8" y="208.281279"/>
    </g>
    <g clip-path="url(#p1db4a88428)">
     <use style="fill:#ff7f0e;stroke:#ffffff;stroke-width:0.48;" x="294.412086" xlink:href="#C0_0_2ddc891db8" y="210.262584"/>
    </g>
    <g clip-path="url(#p1db4a88428)">
     <use style="fill:#1f77b4;stroke:#ffffff;stroke-width:0.48;" x="90.769942" xlink:href="#C0_0_2ddc891db8" y="74.496973"/>
    </g>
    <g clip-path="url(#p1db4a88428)">
     <use style="fill:#ff7f0e;stroke:#ffffff;stroke-width:0.48;" x="333.996952" xlink:href="#C0_0_2ddc891db8" y="211.691248"/>
    </g>
    <g clip-path="url(#p1db4a88428)">
     <use style="fill:#1f77b4;stroke:#ffffff;stroke-width:0.48;" x="214.802522" xlink:href="#C0_0_2ddc891db8" y="114.711245"/>
    </g>
    <g clip-path="url(#p1db4a88428)">
     <use style="fill:#1f77b4;stroke:#ffffff;stroke-width:0.48;" x="102.645402" xlink:href="#C0_0_2ddc891db8" y="137.904137"/>
    </g>
    <g clip-path="url(#p1db4a88428)">
     <use style="fill:#1f77b4;stroke:#ffffff;stroke-width:0.48;" x="124.636994" xlink:href="#C0_0_2ddc891db8" y="93.663478"/>
    </g>
    <g clip-path="url(#p1db4a88428)">
     <use style="fill:#ff7f0e;stroke:#ffffff;stroke-width:0.48;" x="249.98907" xlink:href="#C0_0_2ddc891db8" y="203.3404"/>
    </g>
    <g clip-path="url(#p1db4a88428)">
     <use style="fill:#ff7f0e;stroke:#ffffff;stroke-width:0.48;" x="237.673778" xlink:href="#C0_0_2ddc891db8" y="234.404228"/>
    </g>
    <g clip-path="url(#p1db4a88428)">
     <use style="fill:#1f77b4;stroke:#ffffff;stroke-width:0.48;" x="92.969101" xlink:href="#C0_0_2ddc891db8" y="84.050872"/>
    </g>
    <g clip-path="url(#p1db4a88428)">
     <use style="fill:#1f77b4;stroke:#ffffff;stroke-width:0.48;" x="107.923384" xlink:href="#C0_0_2ddc891db8" y="143.162159"/>
    </g>
    <g clip-path="url(#p1db4a88428)">
     <use style="fill:#1f77b4;stroke:#ffffff;stroke-width:0.48;" x="142.230268" xlink:href="#C0_0_2ddc891db8" y="127.486836"/>
    </g>
    <g clip-path="url(#p1db4a88428)">
     <use style="fill:#1f77b4;stroke:#ffffff;stroke-width:0.48;" x="100.446243" xlink:href="#C0_0_2ddc891db8" y="91.896304"/>
    </g>
    <g clip-path="url(#p1db4a88428)">
     <use style="fill:#1f77b4;stroke:#ffffff;stroke-width:0.48;" x="190.611771" xlink:href="#C0_0_2ddc891db8" y="177.077884"/>
    </g>
    <g clip-path="url(#p1db4a88428)">
     <use style="fill:#1f77b4;stroke:#ffffff;stroke-width:0.48;" x="142.6701" xlink:href="#C0_0_2ddc891db8" y="150.751577"/>
    </g>
    <g clip-path="url(#p1db4a88428)">
     <use style="fill:#1f77b4;stroke:#ffffff;stroke-width:0.48;" x="112.321703" xlink:href="#C0_0_2ddc891db8" y="136.327262"/>
    </g>
    <g clip-path="url(#p1db4a88428)">
     <use style="fill:#1f77b4;stroke:#ffffff;stroke-width:0.48;" x="98.686915" xlink:href="#C0_0_2ddc891db8" y="95.840077"/>
    </g>
    <g clip-path="url(#p1db4a88428)">
     <use style="fill:#1f77b4;stroke:#ffffff;stroke-width:0.48;" x="241.192433" xlink:href="#C0_0_2ddc891db8" y="190.588603"/>
    </g>
    <g clip-path="url(#p1db4a88428)">
     <use style="fill:#ff7f0e;stroke:#ffffff;stroke-width:0.48;" x="206.885549" xlink:href="#C0_0_2ddc891db8" y="186.913431"/>
    </g>
    <g clip-path="url(#p1db4a88428)">
     <use style="fill:#1f77b4;stroke:#ffffff;stroke-width:0.48;" x="114.08103" xlink:href="#C0_0_2ddc891db8" y="133.213264"/>
    </g>
    <g clip-path="url(#p1db4a88428)">
     <use style="fill:#1f77b4;stroke:#ffffff;stroke-width:0.48;" x="152.3464" xlink:href="#C0_0_2ddc891db8" y="184.045334"/>
    </g>
    <g clip-path="url(#p1db4a88428)">
     <use style="fill:#1f77b4;stroke:#ffffff;stroke-width:0.48;" x="200.727903" xlink:href="#C0_0_2ddc891db8" y="54.063583"/>
    </g>
    <g clip-path="url(#p1db4a88428)">
     <use style="fill:#1f77b4;stroke:#ffffff;stroke-width:0.48;" x="80.65381" xlink:href="#C0_0_2ddc891db8" y="124.858933"/>
    </g>
    <g clip-path="url(#p1db4a88428)">
     <use style="fill:#1f77b4;stroke:#ffffff;stroke-width:0.48;" x="102.20557" xlink:href="#C0_0_2ddc891db8" y="85.274207"/>
    </g>
    <g clip-path="url(#p1db4a88428)">
     <use style="fill:#1f77b4;stroke:#ffffff;stroke-width:0.48;" x="246.910247" xlink:href="#C0_0_2ddc891db8" y="220.803303"/>
    </g>
    <g clip-path="url(#p1db4a88428)">
     <use style="fill:#1f77b4;stroke:#ffffff;stroke-width:0.48;" x="265.383184" xlink:href="#C0_0_2ddc891db8" y="99.20776"/>
    </g>
    <g clip-path="url(#p1db4a88428)">
     <use style="fill:#1f77b4;stroke:#ffffff;stroke-width:0.48;" x="93.408933" xlink:href="#C0_0_2ddc891db8" y="97.792032"/>
    </g>
    <g clip-path="url(#p1db4a88428)">
     <use style="fill:#1f77b4;stroke:#ffffff;stroke-width:0.48;" x="111.442039" xlink:href="#C0_0_2ddc891db8" y="152.722716"/>
    </g>
    <g clip-path="url(#p1db4a88428)">
     <use style="fill:#1f77b4;stroke:#ffffff;stroke-width:0.48;" x="147.068418" xlink:href="#C0_0_2ddc891db8" y="93.115809"/>
    </g>
    <g clip-path="url(#p1db4a88428)">
     <use style="fill:#1f77b4;stroke:#ffffff;stroke-width:0.48;" x="277.698476" xlink:href="#C0_0_2ddc891db8" y="217.638574"/>
    </g>
    <g clip-path="url(#p1db4a88428)">
     <use style="fill:#1f77b4;stroke:#ffffff;stroke-width:0.48;" x="118.479348" xlink:href="#C0_0_2ddc891db8" y="126.271829"/>
    </g>
    <g clip-path="url(#p1db4a88428)">
     <use style="fill:#ff7f0e;stroke:#ffffff;stroke-width:0.48;" x="182.254966" xlink:href="#C0_0_2ddc891db8" y="212.113709"/>
    </g>
    <g clip-path="url(#p1db4a88428)">
     <use style="fill:#1f77b4;stroke:#ffffff;stroke-width:0.48;" x="91.209774" xlink:href="#C0_0_2ddc891db8" y="98.495052"/>
    </g>
    <g clip-path="url(#p1db4a88428)">
     <use style="fill:#1f77b4;stroke:#ffffff;stroke-width:0.48;" x="213.922859" xlink:href="#C0_0_2ddc891db8" y="44.443636"/>
    </g>
    <g clip-path="url(#p1db4a88428)">
     <use style="fill:#ff7f0e;stroke:#ffffff;stroke-width:0.48;" x="162.902365" xlink:href="#C0_0_2ddc891db8" y="181.078991"/>
    </g>
    <g clip-path="url(#p1db4a88428)">
     <use style="fill:#1f77b4;stroke:#ffffff;stroke-width:0.48;" x="271.54083" xlink:href="#C0_0_2ddc891db8" y="199.99845"/>
    </g>
    <g clip-path="url(#p1db4a88428)">
     <use style="fill:#1f77b4;stroke:#ffffff;stroke-width:0.48;" x="133.433631" xlink:href="#C0_0_2ddc891db8" y="82.648337"/>
    </g>
    <g clip-path="url(#p1db4a88428)">
     <use style="fill:#ff7f0e;stroke:#ffffff;stroke-width:0.48;" x="334.436784" xlink:href="#C0_0_2ddc891db8" y="202.933724"/>
    </g>
    <g clip-path="url(#p1db4a88428)">
     <use style="fill:#1f77b4;stroke:#ffffff;stroke-width:0.48;" x="209.964372" xlink:href="#C0_0_2ddc891db8" y="186.084127"/>
    </g>
    <g clip-path="url(#p1db4a88428)">
     <use style="fill:#1f77b4;stroke:#ffffff;stroke-width:0.48;" x="133.873463" xlink:href="#C0_0_2ddc891db8" y="83.462232"/>
    </g>
    <g clip-path="url(#p1db4a88428)">
     <use style="fill:#1f77b4;stroke:#ffffff;stroke-width:0.48;" x="191.491435" xlink:href="#C0_0_2ddc891db8" y="170.563776"/>
    </g>
    <g clip-path="url(#p1db4a88428)">
     <use style="fill:#1f77b4;stroke:#ffffff;stroke-width:0.48;" x="90.33011" xlink:href="#C0_0_2ddc891db8" y="112.250559"/>
    </g>
    <g clip-path="url(#p1db4a88428)">
     <use style="fill:#ff7f0e;stroke:#ffffff;stroke-width:0.48;" x="373.581818" xlink:href="#C0_0_2ddc891db8" y="242.116364"/>
    </g>
    <g clip-path="url(#p1db4a88428)">
     <use style="fill:#1f77b4;stroke:#ffffff;stroke-width:0.48;" x="117.599685" xlink:href="#C0_0_2ddc891db8" y="113.722997"/>
    </g>
    <g clip-path="url(#p1db4a88428)">
     <use style="fill:#1f77b4;stroke:#ffffff;stroke-width:0.48;" x="164.22186" xlink:href="#C0_0_2ddc891db8" y="216.754895"/>
    </g>
    <g clip-path="url(#p1db4a88428)">
     <use style="fill:#ff7f0e;stroke:#ffffff;stroke-width:0.48;" x="262.304362" xlink:href="#C0_0_2ddc891db8" y="211.284937"/>
    </g>
    <g clip-path="url(#p1db4a88428)">
     <use style="fill:#1f77b4;stroke:#ffffff;stroke-width:0.48;" x="103.525066" xlink:href="#C0_0_2ddc891db8" y="77.699686"/>
    </g>
    <g clip-path="url(#p1db4a88428)">
     <use style="fill:#ff7f0e;stroke:#ffffff;stroke-width:0.48;" x="194.570257" xlink:href="#C0_0_2ddc891db8" y="162.807938"/>
    </g>
    <g clip-path="url(#p1db4a88428)">
     <use style="fill:#1f77b4;stroke:#ffffff;stroke-width:0.48;" x="240.752601" xlink:href="#C0_0_2ddc891db8" y="195.639852"/>
    </g>
    <g clip-path="url(#p1db4a88428)">
     <use style="fill:#ff7f0e;stroke:#ffffff;stroke-width:0.48;" x="70.537677" xlink:href="#C0_0_2ddc891db8" y="180.35104"/>
    </g>
    <g clip-path="url(#p1db4a88428)">
     <use style="fill:#1f77b4;stroke:#ffffff;stroke-width:0.48;" x="362.14619" xlink:href="#C0_0_2ddc891db8" y="213.7361"/>
    </g>
    <g clip-path="url(#p1db4a88428)">
     <use style="fill:#1f77b4;stroke:#ffffff;stroke-width:0.48;" x="173.898161" xlink:href="#C0_0_2ddc891db8" y="47.80812"/>
    </g>
   </g>
   <g id="PathCollection_2"/>
   <g id="PathCollection_3"/>
   <g id="matplotlib.axis_1">
    <g id="xtick_1">
     <g id="line2d_1">
      <defs>
       <path d="M 0 0 
L 0 3.5 
" id="m7ec50aeb61" style="stroke:#000000;stroke-width:0.8;"/>
      </defs>
      <g>
       <use style="stroke:#000000;stroke-width:0.8;" x="65.699527" xlink:href="#m7ec50aeb61" y="252"/>
      </g>
     </g>
     <g id="text_1">
      <!-- 2020-01 -->
      <g transform="translate(44.808121 266.598437)scale(0.1 -0.1)">
       <defs>
        <path d="M 1228 531 
L 3431 531 
L 3431 0 
L 469 0 
L 469 531 
Q 828 903 1448 1529 
Q 2069 2156 2228 2338 
Q 2531 2678 2651 2914 
Q 2772 3150 2772 3378 
Q 2772 3750 2511 3984 
Q 2250 4219 1831 4219 
Q 1534 4219 1204 4116 
Q 875 4013 500 3803 
L 500 4441 
Q 881 4594 1212 4672 
Q 1544 4750 1819 4750 
Q 2544 4750 2975 4387 
Q 3406 4025 3406 3419 
Q 3406 3131 3298 2873 
Q 3191 2616 2906 2266 
Q 2828 2175 2409 1742 
Q 1991 1309 1228 531 
z
" id="DejaVuSans-32" transform="scale(0.015625)"/>
        <path d="M 2034 4250 
Q 1547 4250 1301 3770 
Q 1056 3291 1056 2328 
Q 1056 1369 1301 889 
Q 1547 409 2034 409 
Q 2525 409 2770 889 
Q 3016 1369 3016 2328 
Q 3016 3291 2770 3770 
Q 2525 4250 2034 4250 
z
M 2034 4750 
Q 2819 4750 3233 4129 
Q 3647 3509 3647 2328 
Q 3647 1150 3233 529 
Q 2819 -91 2034 -91 
Q 1250 -91 836 529 
Q 422 1150 422 2328 
Q 422 3509 836 4129 
Q 1250 4750 2034 4750 
z
" id="DejaVuSans-30" transform="scale(0.015625)"/>
        <path d="M 313 2009 
L 1997 2009 
L 1997 1497 
L 313 1497 
L 313 2009 
z
" id="DejaVuSans-2d" transform="scale(0.015625)"/>
        <path d="M 794 531 
L 1825 531 
L 1825 4091 
L 703 3866 
L 703 4441 
L 1819 4666 
L 2450 4666 
L 2450 531 
L 3481 531 
L 3481 0 
L 794 0 
L 794 531 
z
" id="DejaVuSans-31" transform="scale(0.015625)"/>
       </defs>
       <use xlink:href="#DejaVuSans-32"/>
       <use x="63.623047" xlink:href="#DejaVuSans-30"/>
       <use x="127.246094" xlink:href="#DejaVuSans-32"/>
       <use x="190.869141" xlink:href="#DejaVuSans-30"/>
       <use x="254.492188" xlink:href="#DejaVuSans-2d"/>
       <use x="290.576172" xlink:href="#DejaVuSans-30"/>
       <use x="354.199219" xlink:href="#DejaVuSans-31"/>
      </g>
     </g>
    </g>
    <g id="xtick_2">
     <g id="line2d_2">
      <g>
       <use style="stroke:#000000;stroke-width:0.8;" x="105.724225" xlink:href="#m7ec50aeb61" y="252"/>
      </g>
     </g>
     <g id="text_2">
      <!-- 2020-04 -->
      <g transform="translate(84.832819 266.598437)scale(0.1 -0.1)">
       <defs>
        <path d="M 2419 4116 
L 825 1625 
L 2419 1625 
L 2419 4116 
z
M 2253 4666 
L 3047 4666 
L 3047 1625 
L 3713 1625 
L 3713 1100 
L 3047 1100 
L 3047 0 
L 2419 0 
L 2419 1100 
L 313 1100 
L 313 1709 
L 2253 4666 
z
" id="DejaVuSans-34" transform="scale(0.015625)"/>
       </defs>
       <use xlink:href="#DejaVuSans-32"/>
       <use x="63.623047" xlink:href="#DejaVuSans-30"/>
       <use x="127.246094" xlink:href="#DejaVuSans-32"/>
       <use x="190.869141" xlink:href="#DejaVuSans-30"/>
       <use x="254.492188" xlink:href="#DejaVuSans-2d"/>
       <use x="290.576172" xlink:href="#DejaVuSans-30"/>
       <use x="354.199219" xlink:href="#DejaVuSans-34"/>
      </g>
     </g>
    </g>
    <g id="xtick_3">
     <g id="line2d_3">
      <g>
       <use style="stroke:#000000;stroke-width:0.8;" x="145.748923" xlink:href="#m7ec50aeb61" y="252"/>
      </g>
     </g>
     <g id="text_3">
      <!-- 2020-07 -->
      <g transform="translate(124.857517 266.598437)scale(0.1 -0.1)">
       <defs>
        <path d="M 525 4666 
L 3525 4666 
L 3525 4397 
L 1831 0 
L 1172 0 
L 2766 4134 
L 525 4134 
L 525 4666 
z
" id="DejaVuSans-37" transform="scale(0.015625)"/>
       </defs>
       <use xlink:href="#DejaVuSans-32"/>
       <use x="63.623047" xlink:href="#DejaVuSans-30"/>
       <use x="127.246094" xlink:href="#DejaVuSans-32"/>
       <use x="190.869141" xlink:href="#DejaVuSans-30"/>
       <use x="254.492188" xlink:href="#DejaVuSans-2d"/>
       <use x="290.576172" xlink:href="#DejaVuSans-30"/>
       <use x="354.199219" xlink:href="#DejaVuSans-37"/>
      </g>
     </g>
    </g>
    <g id="xtick_4">
     <g id="line2d_4">
      <g>
       <use style="stroke:#000000;stroke-width:0.8;" x="186.213452" xlink:href="#m7ec50aeb61" y="252"/>
      </g>
     </g>
     <g id="text_4">
      <!-- 2020-10 -->
      <g transform="translate(165.322046 266.598437)scale(0.1 -0.1)">
       <use xlink:href="#DejaVuSans-32"/>
       <use x="63.623047" xlink:href="#DejaVuSans-30"/>
       <use x="127.246094" xlink:href="#DejaVuSans-32"/>
       <use x="190.869141" xlink:href="#DejaVuSans-30"/>
       <use x="254.492188" xlink:href="#DejaVuSans-2d"/>
       <use x="290.576172" xlink:href="#DejaVuSans-31"/>
       <use x="354.199219" xlink:href="#DejaVuSans-30"/>
      </g>
     </g>
    </g>
    <g id="xtick_5">
     <g id="line2d_5">
      <g>
       <use style="stroke:#000000;stroke-width:0.8;" x="226.677982" xlink:href="#m7ec50aeb61" y="252"/>
      </g>
     </g>
     <g id="text_5">
      <!-- 2021-01 -->
      <g transform="translate(205.786576 266.598437)scale(0.1 -0.1)">
       <use xlink:href="#DejaVuSans-32"/>
       <use x="63.623047" xlink:href="#DejaVuSans-30"/>
       <use x="127.246094" xlink:href="#DejaVuSans-32"/>
       <use x="190.869141" xlink:href="#DejaVuSans-31"/>
       <use x="254.492188" xlink:href="#DejaVuSans-2d"/>
       <use x="290.576172" xlink:href="#DejaVuSans-30"/>
       <use x="354.199219" xlink:href="#DejaVuSans-31"/>
      </g>
     </g>
    </g>
    <g id="xtick_6">
     <g id="line2d_6">
      <g>
       <use style="stroke:#000000;stroke-width:0.8;" x="266.262848" xlink:href="#m7ec50aeb61" y="252"/>
      </g>
     </g>
     <g id="text_6">
      <!-- 2021-04 -->
      <g transform="translate(245.371442 266.598437)scale(0.1 -0.1)">
       <use xlink:href="#DejaVuSans-32"/>
       <use x="63.623047" xlink:href="#DejaVuSans-30"/>
       <use x="127.246094" xlink:href="#DejaVuSans-32"/>
       <use x="190.869141" xlink:href="#DejaVuSans-31"/>
       <use x="254.492188" xlink:href="#DejaVuSans-2d"/>
       <use x="290.576172" xlink:href="#DejaVuSans-30"/>
       <use x="354.199219" xlink:href="#DejaVuSans-34"/>
      </g>
     </g>
    </g>
    <g id="xtick_7">
     <g id="line2d_7">
      <g>
       <use style="stroke:#000000;stroke-width:0.8;" x="306.287546" xlink:href="#m7ec50aeb61" y="252"/>
      </g>
     </g>
     <g id="text_7">
      <!-- 2021-07 -->
      <g transform="translate(285.39614 266.598437)scale(0.1 -0.1)">
       <use xlink:href="#DejaVuSans-32"/>
       <use x="63.623047" xlink:href="#DejaVuSans-30"/>
       <use x="127.246094" xlink:href="#DejaVuSans-32"/>
       <use x="190.869141" xlink:href="#DejaVuSans-31"/>
       <use x="254.492188" xlink:href="#DejaVuSans-2d"/>
       <use x="290.576172" xlink:href="#DejaVuSans-30"/>
       <use x="354.199219" xlink:href="#DejaVuSans-37"/>
      </g>
     </g>
    </g>
    <g id="xtick_8">
     <g id="line2d_8">
      <g>
       <use style="stroke:#000000;stroke-width:0.8;" x="346.752076" xlink:href="#m7ec50aeb61" y="252"/>
      </g>
     </g>
     <g id="text_8">
      <!-- 2021-10 -->
      <g transform="translate(325.860669 266.598437)scale(0.1 -0.1)">
       <use xlink:href="#DejaVuSans-32"/>
       <use x="63.623047" xlink:href="#DejaVuSans-30"/>
       <use x="127.246094" xlink:href="#DejaVuSans-32"/>
       <use x="190.869141" xlink:href="#DejaVuSans-31"/>
       <use x="254.492188" xlink:href="#DejaVuSans-2d"/>
       <use x="290.576172" xlink:href="#DejaVuSans-31"/>
       <use x="354.199219" xlink:href="#DejaVuSans-30"/>
      </g>
     </g>
    </g>
    <g id="xtick_9">
     <g id="line2d_9">
      <g>
       <use style="stroke:#000000;stroke-width:0.8;" x="387.216605" xlink:href="#m7ec50aeb61" y="252"/>
      </g>
     </g>
     <g id="text_9">
      <!-- 2022-01 -->
      <g transform="translate(366.325199 266.598437)scale(0.1 -0.1)">
       <use xlink:href="#DejaVuSans-32"/>
       <use x="63.623047" xlink:href="#DejaVuSans-30"/>
       <use x="127.246094" xlink:href="#DejaVuSans-32"/>
       <use x="190.869141" xlink:href="#DejaVuSans-32"/>
       <use x="254.492188" xlink:href="#DejaVuSans-2d"/>
       <use x="290.576172" xlink:href="#DejaVuSans-30"/>
       <use x="354.199219" xlink:href="#DejaVuSans-31"/>
      </g>
     </g>
    </g>
    <g id="text_10">
     <!-- date -->
     <g transform="translate(210.125 280.276563)scale(0.1 -0.1)">
      <defs>
       <path d="M 2906 2969 
L 2906 4863 
L 3481 4863 
L 3481 0 
L 2906 0 
L 2906 525 
Q 2725 213 2448 61 
Q 2172 -91 1784 -91 
Q 1150 -91 751 415 
Q 353 922 353 1747 
Q 353 2572 751 3078 
Q 1150 3584 1784 3584 
Q 2172 3584 2448 3432 
Q 2725 3281 2906 2969 
z
M 947 1747 
Q 947 1113 1208 752 
Q 1469 391 1925 391 
Q 2381 391 2643 752 
Q 2906 1113 2906 1747 
Q 2906 2381 2643 2742 
Q 2381 3103 1925 3103 
Q 1469 3103 1208 2742 
Q 947 2381 947 1747 
z
" id="DejaVuSans-64" transform="scale(0.015625)"/>
       <path d="M 2194 1759 
Q 1497 1759 1228 1600 
Q 959 1441 959 1056 
Q 959 750 1161 570 
Q 1363 391 1709 391 
Q 2188 391 2477 730 
Q 2766 1069 2766 1631 
L 2766 1759 
L 2194 1759 
z
M 3341 1997 
L 3341 0 
L 2766 0 
L 2766 531 
Q 2569 213 2275 61 
Q 1981 -91 1556 -91 
Q 1019 -91 701 211 
Q 384 513 384 1019 
Q 384 1609 779 1909 
Q 1175 2209 1959 2209 
L 2766 2209 
L 2766 2266 
Q 2766 2663 2505 2880 
Q 2244 3097 1772 3097 
Q 1472 3097 1187 3025 
Q 903 2953 641 2809 
L 641 3341 
Q 956 3463 1253 3523 
Q 1550 3584 1831 3584 
Q 2591 3584 2966 3190 
Q 3341 2797 3341 1997 
z
" id="DejaVuSans-61" transform="scale(0.015625)"/>
       <path d="M 1172 4494 
L 1172 3500 
L 2356 3500 
L 2356 3053 
L 1172 3053 
L 1172 1153 
Q 1172 725 1289 603 
Q 1406 481 1766 481 
L 2356 481 
L 2356 0 
L 1766 0 
Q 1100 0 847 248 
Q 594 497 594 1153 
L 594 3053 
L 172 3053 
L 172 3500 
L 594 3500 
L 594 4494 
L 1172 4494 
z
" id="DejaVuSans-74" transform="scale(0.015625)"/>
       <path d="M 3597 1894 
L 3597 1613 
L 953 1613 
Q 991 1019 1311 708 
Q 1631 397 2203 397 
Q 2534 397 2845 478 
Q 3156 559 3463 722 
L 3463 178 
Q 3153 47 2828 -22 
Q 2503 -91 2169 -91 
Q 1331 -91 842 396 
Q 353 884 353 1716 
Q 353 2575 817 3079 
Q 1281 3584 2069 3584 
Q 2775 3584 3186 3129 
Q 3597 2675 3597 1894 
z
M 3022 2063 
Q 3016 2534 2758 2815 
Q 2500 3097 2075 3097 
Q 1594 3097 1305 2825 
Q 1016 2553 972 2059 
L 3022 2063 
z
" id="DejaVuSans-65" transform="scale(0.015625)"/>
      </defs>
      <use xlink:href="#DejaVuSans-64"/>
      <use x="63.476562" xlink:href="#DejaVuSans-61"/>
      <use x="124.755859" xlink:href="#DejaVuSans-74"/>
      <use x="163.964844" xlink:href="#DejaVuSans-65"/>
     </g>
    </g>
   </g>
   <g id="matplotlib.axis_2">
    <g id="ytick_1">
     <g id="line2d_10">
      <defs>
       <path d="M 0 0 
L -3.5 0 
" id="m0f57851c1c" style="stroke:#000000;stroke-width:0.8;"/>
      </defs>
      <g>
       <use style="stroke:#000000;stroke-width:0.8;" x="54" xlink:href="#m0f57851c1c" y="242.265271"/>
      </g>
     </g>
     <g id="text_11">
      <!-- 0.16 -->
      <g transform="translate(24.734375 246.064489)scale(0.1 -0.1)">
       <defs>
        <path d="M 684 794 
L 1344 794 
L 1344 0 
L 684 0 
L 684 794 
z
" id="DejaVuSans-2e" transform="scale(0.015625)"/>
        <path d="M 2113 2584 
Q 1688 2584 1439 2293 
Q 1191 2003 1191 1497 
Q 1191 994 1439 701 
Q 1688 409 2113 409 
Q 2538 409 2786 701 
Q 3034 994 3034 1497 
Q 3034 2003 2786 2293 
Q 2538 2584 2113 2584 
z
M 3366 4563 
L 3366 3988 
Q 3128 4100 2886 4159 
Q 2644 4219 2406 4219 
Q 1781 4219 1451 3797 
Q 1122 3375 1075 2522 
Q 1259 2794 1537 2939 
Q 1816 3084 2150 3084 
Q 2853 3084 3261 2657 
Q 3669 2231 3669 1497 
Q 3669 778 3244 343 
Q 2819 -91 2113 -91 
Q 1303 -91 875 529 
Q 447 1150 447 2328 
Q 447 3434 972 4092 
Q 1497 4750 2381 4750 
Q 2619 4750 2861 4703 
Q 3103 4656 3366 4563 
z
" id="DejaVuSans-36" transform="scale(0.015625)"/>
       </defs>
       <use xlink:href="#DejaVuSans-30"/>
       <use x="63.623047" xlink:href="#DejaVuSans-2e"/>
       <use x="95.410156" xlink:href="#DejaVuSans-31"/>
       <use x="159.033203" xlink:href="#DejaVuSans-36"/>
      </g>
     </g>
    </g>
    <g id="ytick_2">
     <g id="line2d_11">
      <g>
       <use style="stroke:#000000;stroke-width:0.8;" x="54" xlink:href="#m0f57851c1c" y="209.361471"/>
      </g>
     </g>
     <g id="text_12">
      <!-- 0.18 -->
      <g transform="translate(24.734375 213.160689)scale(0.1 -0.1)">
       <defs>
        <path d="M 2034 2216 
Q 1584 2216 1326 1975 
Q 1069 1734 1069 1313 
Q 1069 891 1326 650 
Q 1584 409 2034 409 
Q 2484 409 2743 651 
Q 3003 894 3003 1313 
Q 3003 1734 2745 1975 
Q 2488 2216 2034 2216 
z
M 1403 2484 
Q 997 2584 770 2862 
Q 544 3141 544 3541 
Q 544 4100 942 4425 
Q 1341 4750 2034 4750 
Q 2731 4750 3128 4425 
Q 3525 4100 3525 3541 
Q 3525 3141 3298 2862 
Q 3072 2584 2669 2484 
Q 3125 2378 3379 2068 
Q 3634 1759 3634 1313 
Q 3634 634 3220 271 
Q 2806 -91 2034 -91 
Q 1263 -91 848 271 
Q 434 634 434 1313 
Q 434 1759 690 2068 
Q 947 2378 1403 2484 
z
M 1172 3481 
Q 1172 3119 1398 2916 
Q 1625 2713 2034 2713 
Q 2441 2713 2670 2916 
Q 2900 3119 2900 3481 
Q 2900 3844 2670 4047 
Q 2441 4250 2034 4250 
Q 1625 4250 1398 4047 
Q 1172 3844 1172 3481 
z
" id="DejaVuSans-38" transform="scale(0.015625)"/>
       </defs>
       <use xlink:href="#DejaVuSans-30"/>
       <use x="63.623047" xlink:href="#DejaVuSans-2e"/>
       <use x="95.410156" xlink:href="#DejaVuSans-31"/>
       <use x="159.033203" xlink:href="#DejaVuSans-38"/>
      </g>
     </g>
    </g>
    <g id="ytick_3">
     <g id="line2d_12">
      <g>
       <use style="stroke:#000000;stroke-width:0.8;" x="54" xlink:href="#m0f57851c1c" y="176.457671"/>
      </g>
     </g>
     <g id="text_13">
      <!-- 0.20 -->
      <g transform="translate(24.734375 180.256889)scale(0.1 -0.1)">
       <use xlink:href="#DejaVuSans-30"/>
       <use x="63.623047" xlink:href="#DejaVuSans-2e"/>
       <use x="95.410156" xlink:href="#DejaVuSans-32"/>
       <use x="159.033203" xlink:href="#DejaVuSans-30"/>
      </g>
     </g>
    </g>
    <g id="ytick_4">
     <g id="line2d_13">
      <g>
       <use style="stroke:#000000;stroke-width:0.8;" x="54" xlink:href="#m0f57851c1c" y="143.55387"/>
      </g>
     </g>
     <g id="text_14">
      <!-- 0.22 -->
      <g transform="translate(24.734375 147.353089)scale(0.1 -0.1)">
       <use xlink:href="#DejaVuSans-30"/>
       <use x="63.623047" xlink:href="#DejaVuSans-2e"/>
       <use x="95.410156" xlink:href="#DejaVuSans-32"/>
       <use x="159.033203" xlink:href="#DejaVuSans-32"/>
      </g>
     </g>
    </g>
    <g id="ytick_5">
     <g id="line2d_14">
      <g>
       <use style="stroke:#000000;stroke-width:0.8;" x="54" xlink:href="#m0f57851c1c" y="110.65007"/>
      </g>
     </g>
     <g id="text_15">
      <!-- 0.24 -->
      <g transform="translate(24.734375 114.449289)scale(0.1 -0.1)">
       <use xlink:href="#DejaVuSans-30"/>
       <use x="63.623047" xlink:href="#DejaVuSans-2e"/>
       <use x="95.410156" xlink:href="#DejaVuSans-32"/>
       <use x="159.033203" xlink:href="#DejaVuSans-34"/>
      </g>
     </g>
    </g>
    <g id="ytick_6">
     <g id="line2d_15">
      <g>
       <use style="stroke:#000000;stroke-width:0.8;" x="54" xlink:href="#m0f57851c1c" y="77.74627"/>
      </g>
     </g>
     <g id="text_16">
      <!-- 0.26 -->
      <g transform="translate(24.734375 81.545489)scale(0.1 -0.1)">
       <use xlink:href="#DejaVuSans-30"/>
       <use x="63.623047" xlink:href="#DejaVuSans-2e"/>
       <use x="95.410156" xlink:href="#DejaVuSans-32"/>
       <use x="159.033203" xlink:href="#DejaVuSans-36"/>
      </g>
     </g>
    </g>
    <g id="ytick_7">
     <g id="line2d_16">
      <g>
       <use style="stroke:#000000;stroke-width:0.8;" x="54" xlink:href="#m0f57851c1c" y="44.84247"/>
      </g>
     </g>
     <g id="text_17">
      <!-- 0.28 -->
      <g transform="translate(24.734375 48.641689)scale(0.1 -0.1)">
       <use xlink:href="#DejaVuSans-30"/>
       <use x="63.623047" xlink:href="#DejaVuSans-2e"/>
       <use x="95.410156" xlink:href="#DejaVuSans-32"/>
       <use x="159.033203" xlink:href="#DejaVuSans-38"/>
      </g>
     </g>
    </g>
    <g id="text_18">
     <!-- lexicalrichness ttr -->
     <g transform="translate(18.654687 187.590937)rotate(-90)scale(0.1 -0.1)">
      <defs>
       <path d="M 603 4863 
L 1178 4863 
L 1178 0 
L 603 0 
L 603 4863 
z
" id="DejaVuSans-6c" transform="scale(0.015625)"/>
       <path d="M 3513 3500 
L 2247 1797 
L 3578 0 
L 2900 0 
L 1881 1375 
L 863 0 
L 184 0 
L 1544 1831 
L 300 3500 
L 978 3500 
L 1906 2253 
L 2834 3500 
L 3513 3500 
z
" id="DejaVuSans-78" transform="scale(0.015625)"/>
       <path d="M 603 3500 
L 1178 3500 
L 1178 0 
L 603 0 
L 603 3500 
z
M 603 4863 
L 1178 4863 
L 1178 4134 
L 603 4134 
L 603 4863 
z
" id="DejaVuSans-69" transform="scale(0.015625)"/>
       <path d="M 3122 3366 
L 3122 2828 
Q 2878 2963 2633 3030 
Q 2388 3097 2138 3097 
Q 1578 3097 1268 2742 
Q 959 2388 959 1747 
Q 959 1106 1268 751 
Q 1578 397 2138 397 
Q 2388 397 2633 464 
Q 2878 531 3122 666 
L 3122 134 
Q 2881 22 2623 -34 
Q 2366 -91 2075 -91 
Q 1284 -91 818 406 
Q 353 903 353 1747 
Q 353 2603 823 3093 
Q 1294 3584 2113 3584 
Q 2378 3584 2631 3529 
Q 2884 3475 3122 3366 
z
" id="DejaVuSans-63" transform="scale(0.015625)"/>
       <path d="M 2631 2963 
Q 2534 3019 2420 3045 
Q 2306 3072 2169 3072 
Q 1681 3072 1420 2755 
Q 1159 2438 1159 1844 
L 1159 0 
L 581 0 
L 581 3500 
L 1159 3500 
L 1159 2956 
Q 1341 3275 1631 3429 
Q 1922 3584 2338 3584 
Q 2397 3584 2469 3576 
Q 2541 3569 2628 3553 
L 2631 2963 
z
" id="DejaVuSans-72" transform="scale(0.015625)"/>
       <path d="M 3513 2113 
L 3513 0 
L 2938 0 
L 2938 2094 
Q 2938 2591 2744 2837 
Q 2550 3084 2163 3084 
Q 1697 3084 1428 2787 
Q 1159 2491 1159 1978 
L 1159 0 
L 581 0 
L 581 4863 
L 1159 4863 
L 1159 2956 
Q 1366 3272 1645 3428 
Q 1925 3584 2291 3584 
Q 2894 3584 3203 3211 
Q 3513 2838 3513 2113 
z
" id="DejaVuSans-68" transform="scale(0.015625)"/>
       <path d="M 3513 2113 
L 3513 0 
L 2938 0 
L 2938 2094 
Q 2938 2591 2744 2837 
Q 2550 3084 2163 3084 
Q 1697 3084 1428 2787 
Q 1159 2491 1159 1978 
L 1159 0 
L 581 0 
L 581 3500 
L 1159 3500 
L 1159 2956 
Q 1366 3272 1645 3428 
Q 1925 3584 2291 3584 
Q 2894 3584 3203 3211 
Q 3513 2838 3513 2113 
z
" id="DejaVuSans-6e" transform="scale(0.015625)"/>
       <path d="M 2834 3397 
L 2834 2853 
Q 2591 2978 2328 3040 
Q 2066 3103 1784 3103 
Q 1356 3103 1142 2972 
Q 928 2841 928 2578 
Q 928 2378 1081 2264 
Q 1234 2150 1697 2047 
L 1894 2003 
Q 2506 1872 2764 1633 
Q 3022 1394 3022 966 
Q 3022 478 2636 193 
Q 2250 -91 1575 -91 
Q 1294 -91 989 -36 
Q 684 19 347 128 
L 347 722 
Q 666 556 975 473 
Q 1284 391 1588 391 
Q 1994 391 2212 530 
Q 2431 669 2431 922 
Q 2431 1156 2273 1281 
Q 2116 1406 1581 1522 
L 1381 1569 
Q 847 1681 609 1914 
Q 372 2147 372 2553 
Q 372 3047 722 3315 
Q 1072 3584 1716 3584 
Q 2034 3584 2315 3537 
Q 2597 3491 2834 3397 
z
" id="DejaVuSans-73" transform="scale(0.015625)"/>
       <path id="DejaVuSans-20" transform="scale(0.015625)"/>
      </defs>
      <use xlink:href="#DejaVuSans-6c"/>
      <use x="27.783203" xlink:href="#DejaVuSans-65"/>
      <use x="87.556641" xlink:href="#DejaVuSans-78"/>
      <use x="146.736328" xlink:href="#DejaVuSans-69"/>
      <use x="174.519531" xlink:href="#DejaVuSans-63"/>
      <use x="229.5" xlink:href="#DejaVuSans-61"/>
      <use x="290.779297" xlink:href="#DejaVuSans-6c"/>
      <use x="318.5625" xlink:href="#DejaVuSans-72"/>
      <use x="359.675781" xlink:href="#DejaVuSans-69"/>
      <use x="387.458984" xlink:href="#DejaVuSans-63"/>
      <use x="442.439453" xlink:href="#DejaVuSans-68"/>
      <use x="505.818359" xlink:href="#DejaVuSans-6e"/>
      <use x="569.197266" xlink:href="#DejaVuSans-65"/>
      <use x="630.720703" xlink:href="#DejaVuSans-73"/>
      <use x="682.820312" xlink:href="#DejaVuSans-73"/>
      <use x="734.919922" xlink:href="#DejaVuSans-20"/>
      <use x="766.707031" xlink:href="#DejaVuSans-74"/>
      <use x="805.916016" xlink:href="#DejaVuSans-74"/>
      <use x="845.125" xlink:href="#DejaVuSans-72"/>
     </g>
    </g>
   </g>
   <g id="patch_3">
    <path d="M 54 252 
L 54 34.56 
" style="fill:none;stroke:#000000;stroke-linecap:square;stroke-linejoin:miter;stroke-width:0.8;"/>
   </g>
   <g id="patch_4">
    <path d="M 388.8 252 
L 388.8 34.56 
" style="fill:none;stroke:#000000;stroke-linecap:square;stroke-linejoin:miter;stroke-width:0.8;"/>
   </g>
   <g id="patch_5">
    <path d="M 54 252 
L 388.8 252 
" style="fill:none;stroke:#000000;stroke-linecap:square;stroke-linejoin:miter;stroke-width:0.8;"/>
   </g>
   <g id="patch_6">
    <path d="M 54 34.56 
L 388.8 34.56 
" style="fill:none;stroke:#000000;stroke-linecap:square;stroke-linejoin:miter;stroke-width:0.8;"/>
   </g>
   <g id="legend_1">
    <g id="patch_7">
     <path d="M 310.475 86.594375 
L 381.8 86.594375 
Q 383.8 86.594375 383.8 84.594375 
L 383.8 41.56 
Q 383.8 39.56 381.8 39.56 
L 310.475 39.56 
Q 308.475 39.56 308.475 41.56 
L 308.475 84.594375 
Q 308.475 86.594375 310.475 86.594375 
z
" style="fill:#ffffff;opacity:0.8;stroke:#cccccc;stroke-linejoin:miter;"/>
    </g>
    <g id="text_19">
     <!-- expert -->
     <g transform="translate(329.922656 51.158438)scale(0.1 -0.1)">
      <defs>
       <path d="M 1159 525 
L 1159 -1331 
L 581 -1331 
L 581 3500 
L 1159 3500 
L 1159 2969 
Q 1341 3281 1617 3432 
Q 1894 3584 2278 3584 
Q 2916 3584 3314 3078 
Q 3713 2572 3713 1747 
Q 3713 922 3314 415 
Q 2916 -91 2278 -91 
Q 1894 -91 1617 61 
Q 1341 213 1159 525 
z
M 3116 1747 
Q 3116 2381 2855 2742 
Q 2594 3103 2138 3103 
Q 1681 3103 1420 2742 
Q 1159 2381 1159 1747 
Q 1159 1113 1420 752 
Q 1681 391 2138 391 
Q 2594 391 2855 752 
Q 3116 1113 3116 1747 
z
" id="DejaVuSans-70" transform="scale(0.015625)"/>
      </defs>
      <use xlink:href="#DejaVuSans-65"/>
      <use x="59.773438" xlink:href="#DejaVuSans-78"/>
      <use x="118.953125" xlink:href="#DejaVuSans-70"/>
      <use x="182.429688" xlink:href="#DejaVuSans-65"/>
      <use x="243.953125" xlink:href="#DejaVuSans-72"/>
      <use x="285.066406" xlink:href="#DejaVuSans-74"/>
     </g>
    </g>
    <g id="PathCollection_4">
     <defs>
      <path d="M 0 3 
C 0.795609 3 1.55874 2.683901 2.12132 2.12132 
C 2.683901 1.55874 3 0.795609 3 0 
C 3 -0.795609 2.683901 -1.55874 2.12132 -2.12132 
C 1.55874 -2.683901 0.795609 -3 0 -3 
C -0.795609 -3 -1.55874 -2.683901 -2.12132 -2.12132 
C -2.683901 -1.55874 -3 -0.795609 -3 0 
C -3 0.795609 -2.683901 1.55874 -2.12132 2.12132 
C -1.55874 2.683901 -0.795609 3 0 3 
z
" id="m23feec9c7b" style="stroke:#1f77b4;"/>
     </defs>
     <g>
      <use style="fill:#1f77b4;stroke:#1f77b4;" x="322.475" xlink:href="#m23feec9c7b" y="63.211563"/>
     </g>
    </g>
    <g id="text_20">
     <!-- Drosten -->
     <g transform="translate(340.475 65.836563)scale(0.1 -0.1)">
      <defs>
       <path d="M 1259 4147 
L 1259 519 
L 2022 519 
Q 2988 519 3436 956 
Q 3884 1394 3884 2338 
Q 3884 3275 3436 3711 
Q 2988 4147 2022 4147 
L 1259 4147 
z
M 628 4666 
L 1925 4666 
Q 3281 4666 3915 4102 
Q 4550 3538 4550 2338 
Q 4550 1131 3912 565 
Q 3275 0 1925 0 
L 628 0 
L 628 4666 
z
" id="DejaVuSans-44" transform="scale(0.015625)"/>
       <path d="M 1959 3097 
Q 1497 3097 1228 2736 
Q 959 2375 959 1747 
Q 959 1119 1226 758 
Q 1494 397 1959 397 
Q 2419 397 2687 759 
Q 2956 1122 2956 1747 
Q 2956 2369 2687 2733 
Q 2419 3097 1959 3097 
z
M 1959 3584 
Q 2709 3584 3137 3096 
Q 3566 2609 3566 1747 
Q 3566 888 3137 398 
Q 2709 -91 1959 -91 
Q 1206 -91 779 398 
Q 353 888 353 1747 
Q 353 2609 779 3096 
Q 1206 3584 1959 3584 
z
" id="DejaVuSans-6f" transform="scale(0.015625)"/>
      </defs>
      <use xlink:href="#DejaVuSans-44"/>
      <use x="77.001953" xlink:href="#DejaVuSans-72"/>
      <use x="115.865234" xlink:href="#DejaVuSans-6f"/>
      <use x="177.046875" xlink:href="#DejaVuSans-73"/>
      <use x="229.146484" xlink:href="#DejaVuSans-74"/>
      <use x="268.355469" xlink:href="#DejaVuSans-65"/>
      <use x="329.878906" xlink:href="#DejaVuSans-6e"/>
     </g>
    </g>
    <g id="PathCollection_5">
     <defs>
      <path d="M 0 3 
C 0.795609 3 1.55874 2.683901 2.12132 2.12132 
C 2.683901 1.55874 3 0.795609 3 0 
C 3 -0.795609 2.683901 -1.55874 2.12132 -2.12132 
C 1.55874 -2.683901 0.795609 -3 0 -3 
C -0.795609 -3 -1.55874 -2.683901 -2.12132 -2.12132 
C -2.683901 -1.55874 -3 -0.795609 -3 0 
C -3 0.795609 -2.683901 1.55874 -2.12132 2.12132 
C -1.55874 2.683901 -0.795609 3 0 3 
z
" id="me14dbffc11" style="stroke:#ff7f0e;"/>
     </defs>
     <g>
      <use style="fill:#ff7f0e;stroke:#ff7f0e;" x="322.475" xlink:href="#me14dbffc11" y="77.889688"/>
     </g>
    </g>
    <g id="text_21">
     <!-- Ciesek -->
     <g transform="translate(340.475 80.514688)scale(0.1 -0.1)">
      <defs>
       <path d="M 4122 4306 
L 4122 3641 
Q 3803 3938 3442 4084 
Q 3081 4231 2675 4231 
Q 1875 4231 1450 3742 
Q 1025 3253 1025 2328 
Q 1025 1406 1450 917 
Q 1875 428 2675 428 
Q 3081 428 3442 575 
Q 3803 722 4122 1019 
L 4122 359 
Q 3791 134 3420 21 
Q 3050 -91 2638 -91 
Q 1578 -91 968 557 
Q 359 1206 359 2328 
Q 359 3453 968 4101 
Q 1578 4750 2638 4750 
Q 3056 4750 3426 4639 
Q 3797 4528 4122 4306 
z
" id="DejaVuSans-43" transform="scale(0.015625)"/>
       <path d="M 581 4863 
L 1159 4863 
L 1159 1991 
L 2875 3500 
L 3609 3500 
L 1753 1863 
L 3688 0 
L 2938 0 
L 1159 1709 
L 1159 0 
L 581 0 
L 581 4863 
z
" id="DejaVuSans-6b" transform="scale(0.015625)"/>
      </defs>
      <use xlink:href="#DejaVuSans-43"/>
      <use x="69.824219" xlink:href="#DejaVuSans-69"/>
      <use x="97.607422" xlink:href="#DejaVuSans-65"/>
      <use x="159.130859" xlink:href="#DejaVuSans-73"/>
      <use x="211.230469" xlink:href="#DejaVuSans-65"/>
      <use x="272.753906" xlink:href="#DejaVuSans-6b"/>
     </g>
    </g>
   </g>
  </g>
 </g>
 <defs>
  <clipPath id="p1db4a88428">
   <rect height="217.44" width="334.8" x="54" y="34.56"/>
  </clipPath>
 </defs>
</svg>
